<svg width="49" height="39" viewBox="0 0 49 39" fill="none" xmlns="http://www.w3.org/2000/svg">
<path d="M20 19C19.7033 19 19.4133 19.088 19.1666 19.2528C18.92 19.4176 18.7277 19.6519 18.6142 19.926C18.5006 20.2001 18.4709 20.5017 18.5288 20.7926C18.5867 21.0836 18.7296 21.3509 18.9393 21.5607C19.1491 21.7704 19.4164 21.9133 19.7074 21.9712C19.9983 22.0291 20.2999 21.9993 20.574 21.8858C20.8481 21.7723 21.0824 21.58 21.2472 21.3334C21.412 21.0867 21.5 20.7967 21.5 20.5C21.5 20.1022 21.342 19.7206 21.0607 19.4393C20.7794 19.158 20.3978 19 20 19ZM31 19C30.7033 19 30.4133 19.088 30.1666 19.2528C29.92 19.4176 29.7277 19.6519 29.6142 19.926C29.5007 20.2001 29.4709 20.5017 29.5288 20.7926C29.5867 21.0836 29.7296 21.3509 29.9393 21.5607C30.1491 21.7704 30.4164 21.9133 30.7074 21.9712C30.9983 22.0291 31.2999 21.9993 31.574 21.8858C31.8481 21.7723 32.0824 21.58 32.2472 21.3334C32.412 21.0867 32.5 20.7967 32.5 20.5C32.5 20.1022 32.342 19.7206 32.0607 19.4393C31.7794 19.158 31.3978 19 31 19ZM32 17.9983V15.9983L21.262 15.9891L20.9406 14.6967L34.0006 12.3632L34 5H18.5287L18.0312 3H14V5H16.4677L19.6982 17.9878L32 17.9983ZM32 7V10.6888L20.4567 12.7514L19.0262 7H32Z" fill="#333333"/>
<path d="M6.1875 36L3.1875 31.9943H2.11364V36H1.05682V27.2727H2.11364V31.0568H2.57386L6.06818 27.2727H7.32955L3.80114 31.108L7.44886 36H6.1875ZM10.8569 36.1364C10.266 36.1364 9.74751 35.9957 9.30149 35.7145C8.85831 35.4332 8.51172 35.0398 8.26172 34.5341C8.01456 34.0284 7.89098 33.4375 7.89098 32.7614C7.89098 32.0795 8.01456 31.4844 8.26172 30.9759C8.51172 30.4673 8.85831 30.0724 9.30149 29.7912C9.74751 29.5099 10.266 29.3693 10.8569 29.3693C11.4478 29.3693 11.9648 29.5099 12.408 29.7912C12.854 30.0724 13.2006 30.4673 13.4478 30.9759C13.6978 31.4844 13.8228 32.0795 13.8228 32.7614C13.8228 33.4375 13.6978 34.0284 13.4478 34.5341C13.2006 35.0398 12.854 35.4332 12.408 35.7145C11.9648 35.9957 11.4478 36.1364 10.8569 36.1364ZM10.8569 35.233C11.3058 35.233 11.6751 35.1179 11.9648 34.8878C12.2546 34.6577 12.4691 34.3551 12.6083 33.9801C12.7475 33.6051 12.8171 33.1989 12.8171 32.7614C12.8171 32.3239 12.7475 31.9162 12.6083 31.5384C12.4691 31.1605 12.2546 30.8551 11.9648 30.6222C11.6751 30.3892 11.3058 30.2727 10.8569 30.2727C10.408 30.2727 10.0387 30.3892 9.74893 30.6222C9.45916 30.8551 9.24467 31.1605 9.10547 31.5384C8.96626 31.9162 8.89666 32.3239 8.89666 32.7614C8.89666 33.1989 8.96626 33.6051 9.10547 33.9801C9.24467 34.3551 9.45916 34.6577 9.74893 34.8878C10.0387 35.1179 10.408 35.233 10.8569 35.233ZM15.358 38.4545V29.4545H16.3295V30.4943H16.4489C16.5227 30.3807 16.625 30.2358 16.7557 30.0597C16.8892 29.8807 17.0795 29.7216 17.3267 29.5824C17.5767 29.4403 17.9148 29.3693 18.3409 29.3693C18.892 29.3693 19.3778 29.5071 19.7983 29.7827C20.2188 30.0582 20.5469 30.4489 20.7827 30.9545C21.0185 31.4602 21.1364 32.0568 21.1364 32.7443C21.1364 33.4375 21.0185 34.0384 20.7827 34.5469C20.5469 35.0526 20.2202 35.4446 19.8026 35.723C19.3849 35.9986 18.9034 36.1364 18.358 36.1364C17.9375 36.1364 17.6009 36.0668 17.348 35.9276C17.0952 35.7855 16.9006 35.625 16.7642 35.446C16.6278 35.2642 16.5227 35.1136 16.4489 34.9943H16.3636V38.4545H15.358ZM16.3466 32.7273C16.3466 33.2216 16.419 33.6577 16.5639 34.0355C16.7088 34.4105 16.9205 34.7045 17.1989 34.9176C17.4773 35.1278 17.8182 35.233 18.2216 35.233C18.642 35.233 18.9929 35.1222 19.2741 34.9006C19.5582 34.6761 19.7713 34.375 19.9134 33.9972C20.0582 33.6165 20.1307 33.1932 20.1307 32.7273C20.1307 32.267 20.0597 31.8523 19.9176 31.483C19.7784 31.1108 19.5668 30.8168 19.2827 30.6009C19.0014 30.3821 18.6477 30.2727 18.2216 30.2727C17.8125 30.2727 17.4688 30.3764 17.1903 30.5838C16.9119 30.7884 16.7017 31.0753 16.5597 31.4446C16.4176 31.8111 16.3466 32.2386 16.3466 32.7273ZM22.2614 34.3295H23.3352C23.358 34.625 23.4915 34.8494 23.7358 35.0028C23.983 35.1562 24.304 35.233 24.6989 35.233C25.1023 35.233 25.4474 35.1506 25.7344 34.9858C26.0213 34.8182 26.1648 34.5483 26.1648 34.1761C26.1648 33.9574 26.1108 33.767 26.0028 33.6051C25.8949 33.4403 25.7429 33.3125 25.5469 33.2216C25.3509 33.1307 25.1193 33.0852 24.8523 33.0852H23.7273V32.1818H24.8523C25.2528 32.1818 25.5483 32.0909 25.7386 31.9091C25.9318 31.7273 26.0284 31.5 26.0284 31.2273C26.0284 30.9347 25.9247 30.7003 25.7173 30.5241C25.5099 30.3452 25.2159 30.2557 24.8352 30.2557C24.4517 30.2557 24.1321 30.3423 23.8764 30.5156C23.6207 30.6861 23.4858 30.9062 23.4716 31.1761H22.4148C22.4261 30.8239 22.5341 30.5128 22.7386 30.2429C22.9432 29.9702 23.2216 29.7571 23.5739 29.6037C23.9261 29.4474 24.3295 29.3693 24.7841 29.3693C25.2443 29.3693 25.6435 29.4503 25.9815 29.6122C26.3224 29.7713 26.5852 29.9886 26.7699 30.2642C26.9574 30.5369 27.0511 30.8466 27.0511 31.1932C27.0511 31.5625 26.9474 31.8608 26.7401 32.0881C26.5327 32.3153 26.2727 32.4773 25.9602 32.5739V32.642C26.2074 32.6591 26.4219 32.7386 26.6037 32.8807C26.7884 33.0199 26.9318 33.2031 27.0341 33.4304C27.1364 33.6548 27.1875 33.9034 27.1875 34.1761C27.1875 34.5739 27.081 34.9205 26.8679 35.2159C26.6548 35.5085 26.3622 35.7358 25.9901 35.8977C25.6179 36.0568 25.1932 36.1364 24.7159 36.1364C24.2528 36.1364 23.8381 36.0611 23.4716 35.9105C23.1051 35.7571 22.8139 35.5455 22.598 35.2756C22.3849 35.0028 22.2727 34.6875 22.2614 34.3295ZM29.6058 34.517L32.7592 29.4545H33.9183V36H32.9126V30.9375L29.7763 36H28.6001V29.4545H29.6058V34.517ZM40.141 32.267V33.2045H36.5273V32.267H40.141ZM36.766 29.4545V36H35.7603V29.4545H36.766ZM40.908 29.4545V36H39.9023V29.4545H40.908ZM44.6708 36.1534C44.256 36.1534 43.8796 36.0753 43.5415 35.919C43.2035 35.7599 42.935 35.5312 42.7362 35.233C42.5373 34.9318 42.4379 34.5682 42.4379 34.142C42.4379 33.767 42.5117 33.4631 42.6594 33.2301C42.8072 32.9943 43.0046 32.8097 43.2518 32.6761C43.4989 32.5426 43.7717 32.4432 44.07 32.3778C44.3711 32.3097 44.6737 32.2557 44.9776 32.2159C45.3754 32.1648 45.6978 32.1264 45.945 32.1009C46.195 32.0724 46.3768 32.0256 46.4904 31.9602C46.6069 31.8949 46.6651 31.7812 46.6651 31.6193V31.5852C46.6651 31.1648 46.5501 30.8381 46.32 30.6051C46.0927 30.3722 45.7475 30.2557 45.2844 30.2557C44.8043 30.2557 44.4279 30.3608 44.1552 30.571C43.8825 30.7812 43.6907 31.0057 43.5799 31.2443L42.6254 30.9034C42.7958 30.5057 43.0231 30.196 43.3072 29.9744C43.5941 29.75 43.9066 29.5937 44.2447 29.5057C44.5856 29.4148 44.9208 29.3693 45.2504 29.3693C45.4606 29.3693 45.7021 29.3949 45.9748 29.446C46.2504 29.4943 46.516 29.5952 46.7717 29.7486C47.0302 29.902 47.2447 30.1335 47.4151 30.4432C47.5856 30.7528 47.6708 31.1676 47.6708 31.6875V36H46.6651V35.1136H46.614C46.5458 35.2557 46.4322 35.4077 46.2731 35.5696C46.114 35.7315 45.9023 35.8693 45.6381 35.983C45.3739 36.0966 45.0515 36.1534 44.6708 36.1534ZM44.8242 35.25C45.2219 35.25 45.5572 35.1719 45.8299 35.0156C46.1055 34.8594 46.3129 34.6577 46.4521 34.4105C46.5941 34.1634 46.6651 33.9034 46.6651 33.6307V32.7102C46.6225 32.7614 46.5288 32.8082 46.3839 32.8509C46.2418 32.8906 46.0771 32.9261 45.8896 32.9574C45.7049 32.9858 45.5245 33.0114 45.3484 33.0341C45.1751 33.054 45.0344 33.071 44.9265 33.0852C44.6651 33.1193 44.4208 33.1747 44.1935 33.2514C43.9691 33.3253 43.7873 33.4375 43.6481 33.5881C43.5117 33.7358 43.4435 33.9375 43.4435 34.1932C43.4435 34.5426 43.5728 34.8068 43.8313 34.9858C44.0927 35.1619 44.4237 35.25 44.8242 35.25Z" fill="#333333"/>
</svg>
