<svg width="65" height="39" viewBox="0 0 65 39" fill="none" xmlns="http://www.w3.org/2000/svg">
<path d="M33 21C32.355 20.428 31.626 19.833 30.855 19.2H30.845C28.13 16.98 25.053 14.468 23.694 11.458C23.2475 10.4997 23.0109 9.45715 23 8.40003C22.997 6.94951 23.5788 5.55901 24.6138 4.54279C25.6489 3.52657 27.0498 2.97042 28.5 3.00003C29.6807 3.00189 30.8359 3.34311 31.828 3.98303C32.264 4.26599 32.6584 4.60828 33 5.00003C33.3435 4.60982 33.7381 4.26773 34.173 3.98303C35.1648 3.34298 36.3197 3.00174 37.5 3.00003C38.9502 2.97042 40.3512 3.52657 41.3862 4.54279C42.4213 5.55901 43.003 6.94951 43 8.40003C42.9898 9.45884 42.7532 10.5032 42.306 11.463C40.947 14.473 37.871 16.984 35.156 19.2L35.146 19.208C34.374 19.837 33.646 20.432 33.001 21.008L33 21ZM28.5 5.00003C27.5685 4.98837 26.6701 5.34487 26 5.99203C25.3544 6.62619 24.9936 7.49507 24.9999 8.40003C25.0114 9.17053 25.1859 9.92988 25.512 10.628C26.1535 11.9267 27.0191 13.102 28.069 14.1C29.06 15.1 30.2 16.068 31.186 16.882C31.459 17.107 31.737 17.334 32.015 17.561L32.19 17.704C32.457 17.922 32.733 18.148 33 18.37L33.013 18.358L33.019 18.353H33.025L33.034 18.346H33.039H33.044L33.062 18.331L33.103 18.298L33.11 18.292L33.121 18.284H33.127L33.136 18.276L33.8 17.731L33.974 17.588C34.255 17.359 34.533 17.132 34.806 16.907C35.792 16.093 36.933 15.126 37.924 14.121C38.9741 13.1236 39.8397 11.9485 40.481 10.65C40.8131 9.94583 40.9901 9.17853 41.0001 8.40003C41.0042 7.49786 40.6435 6.63232 40 6.00003C39.3312 5.34995 38.4326 4.99051 37.5 5.00003C36.3619 4.99035 35.274 5.46739 34.51 6.31103L33 8.05103L31.49 6.31103C30.7261 5.46739 29.6381 4.99035 28.5 5.00003Z" fill="#333333"/>
<path d="M1.05682 27.2727H2.09659V34.142H2.18182L6.95455 27.2727H7.97727V36H6.92045V29.1477H6.83523L2.07955 36H1.05682V27.2727ZM9.54652 34.3295H10.6204C10.6431 34.625 10.7766 34.8494 11.021 35.0028C11.2681 35.1562 11.5891 35.233 11.984 35.233C12.3874 35.233 12.7326 35.1506 13.0195 34.9858C13.3065 34.8182 13.4499 34.5483 13.4499 34.1761C13.4499 33.9574 13.396 33.767 13.288 33.6051C13.18 33.4403 13.0281 33.3125 12.832 33.2216C12.636 33.1307 12.4045 33.0852 12.1374 33.0852H11.0124V32.1818H12.1374C12.538 32.1818 12.8335 32.0909 13.0238 31.9091C13.217 31.7273 13.3136 31.5 13.3136 31.2273C13.3136 30.9347 13.2099 30.7003 13.0025 30.5241C12.7951 30.3452 12.5011 30.2557 12.1204 30.2557C11.7369 30.2557 11.4173 30.3423 11.1616 30.5156C10.9059 30.6861 10.771 30.9062 10.7567 31.1761H9.69993C9.71129 30.8239 9.81925 30.5128 10.0238 30.2429C10.2283 29.9702 10.5067 29.7571 10.859 29.6037C11.2113 29.4474 11.6147 29.3693 12.0692 29.3693C12.5295 29.3693 12.9286 29.4503 13.2667 29.6122C13.6076 29.7713 13.8704 29.9886 14.055 30.2642C14.2425 30.5369 14.3363 30.8466 14.3363 31.1932C14.3363 31.5625 14.2326 31.8608 14.0252 32.0881C13.8178 32.3153 13.5579 32.4773 13.2454 32.5739V32.642C13.4925 32.6591 13.707 32.7386 13.8888 32.8807C14.0735 33.0199 14.217 33.2031 14.3192 33.4304C14.4215 33.6548 14.4727 33.9034 14.4727 34.1761C14.4727 34.5739 14.3661 34.9205 14.1531 35.2159C13.94 35.5085 13.6474 35.7358 13.2752 35.8977C12.9031 36.0568 12.4783 36.1364 12.0011 36.1364C11.538 36.1364 11.1232 36.0611 10.7567 35.9105C10.3903 35.7571 10.0991 35.5455 9.88317 35.2756C9.6701 35.0028 9.55788 34.6875 9.54652 34.3295ZM20.7433 27L21.2546 27.6136C21.0558 27.8068 20.8256 27.9418 20.5643 28.0185C20.3029 28.0952 20.0075 28.142 19.6779 28.1591C19.3484 28.1761 18.9819 28.1932 18.5785 28.2102C18.1239 28.2273 17.7475 28.3381 17.4492 28.5426C17.1509 28.7472 16.9208 29.0426 16.7589 29.429C16.5969 29.8153 16.4933 30.2898 16.4478 30.8523H16.533C16.7546 30.4432 17.0614 30.142 17.4535 29.9489C17.8455 29.7557 18.266 29.6591 18.7148 29.6591C19.2262 29.6591 19.6864 29.7784 20.0955 30.017C20.5046 30.2557 20.8285 30.6094 21.0671 31.0781C21.3058 31.5469 21.4251 32.125 21.4251 32.8125C21.4251 33.4972 21.3029 34.0881 21.0586 34.5852C20.8171 35.0824 20.4776 35.4659 20.0401 35.7358C19.6055 36.0028 19.0955 36.1364 18.5103 36.1364C17.9251 36.1364 17.4123 35.9986 16.9719 35.723C16.5316 35.4446 16.1893 35.0327 15.945 34.4872C15.7006 33.9389 15.5785 33.2614 15.5785 32.4545V31.7557C15.5785 30.2983 15.8256 29.1932 16.32 28.4403C16.8171 27.6875 17.5643 27.2983 18.5614 27.2727C18.9137 27.2614 19.2276 27.2585 19.5032 27.2642C19.7788 27.2699 20.0188 27.2571 20.2234 27.2259C20.4279 27.1946 20.6012 27.1193 20.7433 27ZM18.5103 35.233C18.9052 35.233 19.2447 35.1335 19.5288 34.9347C19.8157 34.7358 20.0359 34.456 20.1893 34.0952C20.3427 33.7315 20.4194 33.304 20.4194 32.8125C20.4194 32.3352 20.3413 31.929 20.185 31.5938C20.0316 31.2585 19.8114 31.0028 19.5245 30.8267C19.2376 30.6506 18.8938 30.5625 18.4933 30.5625C18.2006 30.5625 17.9379 30.6122 17.7049 30.7116C17.4719 30.8111 17.2731 30.9574 17.1083 31.1506C16.9435 31.3437 16.8157 31.5795 16.7248 31.858C16.6367 32.1364 16.5898 32.4545 16.5842 32.8125C16.5842 33.5455 16.756 34.1321 17.0998 34.5724C17.4435 35.0128 17.9137 35.233 18.5103 35.233ZM22.9634 38.4545V29.4545H23.935V30.4943H24.0543C24.1282 30.3807 24.2305 30.2358 24.3612 30.0597C24.4947 29.8807 24.685 29.7216 24.9322 29.5824C25.1822 29.4403 25.5202 29.3693 25.9464 29.3693C26.4975 29.3693 26.9833 29.5071 27.4038 29.7827C27.8242 30.0582 28.1523 30.4489 28.3881 30.9545C28.6239 31.4602 28.7418 32.0568 28.7418 32.7443C28.7418 33.4375 28.6239 34.0384 28.3881 34.5469C28.1523 35.0526 27.8256 35.4446 27.408 35.723C26.9904 35.9986 26.5089 36.1364 25.9634 36.1364C25.543 36.1364 25.2063 36.0668 24.9535 35.9276C24.7006 35.7855 24.506 35.625 24.3697 35.446C24.2333 35.2642 24.1282 35.1136 24.0543 34.9943H23.9691V38.4545H22.9634ZM23.9521 32.7273C23.9521 33.2216 24.0245 33.6577 24.1694 34.0355C24.3143 34.4105 24.5259 34.7045 24.8043 34.9176C25.0827 35.1278 25.4237 35.233 25.8271 35.233C26.2475 35.233 26.5984 35.1222 26.8796 34.9006C27.1637 34.6761 27.3768 34.375 27.5188 33.9972C27.6637 33.6165 27.7362 33.1932 27.7362 32.7273C27.7362 32.267 27.6651 31.8523 27.5231 31.483C27.3839 31.1108 27.1722 30.8168 26.8881 30.6009C26.6069 30.3821 26.2532 30.2727 25.8271 30.2727C25.418 30.2727 25.0742 30.3764 24.7958 30.5838C24.5174 30.7884 24.3072 31.0753 24.1651 31.4446C24.0231 31.8111 23.9521 32.2386 23.9521 32.7273ZM32.2021 36.1534C31.7873 36.1534 31.4109 36.0753 31.0728 35.919C30.7347 35.7599 30.4663 35.5312 30.2674 35.233C30.0685 34.9318 29.9691 34.5682 29.9691 34.142C29.9691 33.767 30.043 33.4631 30.1907 33.2301C30.3384 32.9943 30.5359 32.8097 30.783 32.6761C31.0302 32.5426 31.3029 32.4432 31.6012 32.3778C31.9023 32.3097 32.2049 32.2557 32.5089 32.2159C32.9066 32.1648 33.229 32.1264 33.4762 32.1009C33.7262 32.0724 33.908 32.0256 34.0217 31.9602C34.1381 31.8949 34.1964 31.7812 34.1964 31.6193V31.5852C34.1964 31.1648 34.0813 30.8381 33.8512 30.6051C33.6239 30.3722 33.2788 30.2557 32.8157 30.2557C32.3356 30.2557 31.9592 30.3608 31.6864 30.571C31.4137 30.7812 31.2219 31.0057 31.1112 31.2443L30.1566 30.9034C30.3271 30.5057 30.5543 30.196 30.8384 29.9744C31.1254 29.75 31.4379 29.5937 31.7759 29.5057C32.1168 29.4148 32.4521 29.3693 32.7816 29.3693C32.9918 29.3693 33.2333 29.3949 33.506 29.446C33.7816 29.4943 34.0472 29.5952 34.3029 29.7486C34.5614 29.902 34.7759 30.1335 34.9464 30.4432C35.1168 30.7528 35.2021 31.1676 35.2021 31.6875V36H34.1964V35.1136H34.1452C34.0771 35.2557 33.9634 35.4077 33.8043 35.5696C33.6452 35.7315 33.4336 35.8693 33.1694 35.983C32.9052 36.0966 32.5827 36.1534 32.2021 36.1534ZM32.3555 35.25C32.7532 35.25 33.0884 35.1719 33.3612 35.0156C33.6367 34.8594 33.8441 34.6577 33.9833 34.4105C34.1254 34.1634 34.1964 33.9034 34.1964 33.6307V32.7102C34.1538 32.7614 34.06 32.8082 33.9151 32.8509C33.7731 32.8906 33.6083 32.9261 33.4208 32.9574C33.2362 32.9858 33.0558 33.0114 32.8796 33.0341C32.7063 33.054 32.5657 33.071 32.4577 33.0852C32.1964 33.1193 31.9521 33.1747 31.7248 33.2514C31.5004 33.3253 31.3185 33.4375 31.1793 33.5881C31.043 33.7358 30.9748 33.9375 30.9748 34.1932C30.9748 34.5426 31.104 34.8068 31.3626 34.9858C31.6239 35.1619 31.9549 35.25 32.3555 35.25ZM41.4183 32.267V33.2045H37.8047V32.267H41.4183ZM38.0433 29.4545V36H37.0376V29.4545H38.0433ZM42.1854 29.4545V36H41.1797V29.4545H42.1854ZM48.4027 32.267V33.2045H44.7891V32.267H48.4027ZM45.0277 29.4545V36H44.022V29.4545H45.0277ZM49.1697 29.4545V36H48.1641V29.4545H49.1697ZM53.6655 36.1364C53.0746 36.1364 52.5561 35.9957 52.1101 35.7145C51.6669 35.4332 51.3203 35.0398 51.0703 34.5341C50.8232 34.0284 50.6996 33.4375 50.6996 32.7614C50.6996 32.0795 50.8232 31.4844 51.0703 30.9759C51.3203 30.4673 51.6669 30.0724 52.1101 29.7912C52.5561 29.5099 53.0746 29.3693 53.6655 29.3693C54.2564 29.3693 54.7734 29.5099 55.2166 29.7912C55.6626 30.0724 56.0092 30.4673 56.2564 30.9759C56.5064 31.4844 56.6314 32.0795 56.6314 32.7614C56.6314 33.4375 56.5064 34.0284 56.2564 34.5341C56.0092 35.0398 55.6626 35.4332 55.2166 35.7145C54.7734 35.9957 54.2564 36.1364 53.6655 36.1364ZM53.6655 35.233C54.1143 35.233 54.4837 35.1179 54.7734 34.8878C55.0632 34.6577 55.2777 34.3551 55.4169 33.9801C55.5561 33.6051 55.6257 33.1989 55.6257 32.7614C55.6257 32.3239 55.5561 31.9162 55.4169 31.5384C55.2777 31.1605 55.0632 30.8551 54.7734 30.6222C54.4837 30.3892 54.1143 30.2727 53.6655 30.2727C53.2166 30.2727 52.8473 30.3892 52.5575 30.6222C52.2678 30.8551 52.0533 31.1605 51.9141 31.5384C51.7749 31.9162 51.7053 32.3239 51.7053 32.7614C51.7053 33.1989 51.7749 33.6051 51.9141 33.9801C52.0533 34.3551 52.2678 34.6577 52.5575 34.8878C52.8473 35.1179 53.2166 35.233 53.6655 35.233ZM60.9109 36.1364C60.2802 36.1364 59.7362 35.9972 59.2788 35.7188C58.8242 35.4375 58.4734 35.0455 58.2262 34.5426C57.9819 34.0369 57.8597 33.4489 57.8597 32.7784C57.8597 32.108 57.9819 31.517 58.2262 31.0057C58.4734 30.4915 58.8171 30.0909 59.2575 29.804C59.7006 29.5142 60.2177 29.3693 60.8086 29.3693C61.1495 29.3693 61.4862 29.4261 61.8185 29.5398C62.1509 29.6534 62.4535 29.8381 62.7262 30.0938C62.9989 30.3466 63.2163 30.6818 63.3782 31.0994C63.5401 31.517 63.6211 32.0312 63.6211 32.642V33.0682H58.5756V32.1989H62.5984C62.5984 31.8295 62.5245 31.5 62.3768 31.2102C62.2319 30.9205 62.0245 30.6918 61.7546 30.5241C61.4876 30.3565 61.1722 30.2727 60.8086 30.2727C60.408 30.2727 60.0614 30.3722 59.7688 30.571C59.479 30.767 59.256 31.0227 59.0998 31.3381C58.9435 31.6534 58.8654 31.9915 58.8654 32.3523V32.9318C58.8654 33.4261 58.9506 33.8452 59.1211 34.1889C59.2944 34.5298 59.5344 34.7898 59.8413 34.9688C60.1481 35.1449 60.5046 35.233 60.9109 35.233C61.1751 35.233 61.4137 35.196 61.6268 35.1222C61.8427 35.0455 62.0288 34.9318 62.185 34.7812C62.3413 34.6278 62.462 34.4375 62.5472 34.2102L63.5188 34.483C63.4165 34.8125 63.2447 35.1023 63.0032 35.3523C62.7617 35.5994 62.4634 35.7926 62.1083 35.9318C61.7532 36.0682 61.354 36.1364 60.9109 36.1364Z" fill="#333333"/>
</svg>
