<svg width="65" height="39" viewBox="0 0 65 39" fill="none" xmlns="http://www.w3.org/2000/svg">
<path d="M25 9V19" stroke="#333333" stroke-width="1.5" stroke-linecap="round"/>
<path d="M29 5L29 19" stroke="#333333" stroke-width="1.5" stroke-linecap="round"/>
<path d="M33 13L33 19" stroke="#333333" stroke-width="1.5" stroke-linecap="round"/>
<path d="M37 9L37 19" stroke="#333333" stroke-width="1.5" stroke-linecap="round"/>
<path d="M8.07955 30H7.02273C6.96023 29.696 6.85085 29.429 6.6946 29.1989C6.54119 28.9688 6.35369 28.7756 6.1321 28.6193C5.91335 28.4602 5.67045 28.3409 5.40341 28.2614C5.13636 28.1818 4.85795 28.142 4.56818 28.142C4.03977 28.142 3.56108 28.2756 3.1321 28.5426C2.70597 28.8097 2.36648 29.2031 2.11364 29.723C1.86364 30.2429 1.73864 30.8807 1.73864 31.6364C1.73864 32.392 1.86364 33.0298 2.11364 33.5497C2.36648 34.0696 2.70597 34.4631 3.1321 34.7301C3.56108 34.9972 4.03977 35.1307 4.56818 35.1307C4.85795 35.1307 5.13636 35.0909 5.40341 35.0114C5.67045 34.9318 5.91335 34.8139 6.1321 34.6577C6.35369 34.4986 6.54119 34.304 6.6946 34.0739C6.85085 33.8409 6.96023 33.5739 7.02273 33.2727H8.07955C8 33.7187 7.85511 34.1179 7.64489 34.4702C7.43466 34.8224 7.1733 35.1222 6.8608 35.3693C6.5483 35.6136 6.19744 35.7997 5.80824 35.9276C5.42188 36.0554 5.00852 36.1193 4.56818 36.1193C3.82386 36.1193 3.16193 35.9375 2.58239 35.5739C2.00284 35.2102 1.54688 34.6932 1.21449 34.0227C0.882102 33.3523 0.715909 32.5568 0.715909 31.6364C0.715909 30.7159 0.882102 29.9205 1.21449 29.25C1.54688 28.5795 2.00284 28.0625 2.58239 27.6989C3.16193 27.3352 3.82386 27.1534 4.56818 27.1534C5.00852 27.1534 5.42188 27.2173 5.80824 27.3452C6.19744 27.473 6.5483 27.6605 6.8608 27.9077C7.1733 28.152 7.43466 28.4503 7.64489 28.8026C7.85511 29.152 8 29.5511 8.07955 30ZM9.65092 38.4545V29.4545H10.6225V30.4943H10.7418C10.8157 30.3807 10.918 30.2358 11.0487 30.0597C11.1822 29.8807 11.3725 29.7216 11.6197 29.5824C11.8697 29.4403 12.2077 29.3693 12.6339 29.3693C13.185 29.3693 13.6708 29.5071 14.0913 29.7827C14.5117 30.0582 14.8398 30.4489 15.0756 30.9545C15.3114 31.4602 15.4293 32.0568 15.4293 32.7443C15.4293 33.4375 15.3114 34.0384 15.0756 34.5469C14.8398 35.0526 14.5131 35.4446 14.0955 35.723C13.6779 35.9986 13.1964 36.1364 12.6509 36.1364C12.2305 36.1364 11.8938 36.0668 11.641 35.9276C11.3881 35.7855 11.1935 35.625 11.0572 35.446C10.9208 35.2642 10.8157 35.1136 10.7418 34.9943H10.6566V38.4545H9.65092ZM10.6396 32.7273C10.6396 33.2216 10.712 33.6577 10.8569 34.0355C11.0018 34.4105 11.2134 34.7045 11.4918 34.9176C11.7702 35.1278 12.1112 35.233 12.5146 35.233C12.935 35.233 13.2859 35.1222 13.5671 34.9006C13.8512 34.6761 14.0643 34.375 14.2063 33.9972C14.3512 33.6165 14.4237 33.1932 14.4237 32.7273C14.4237 32.267 14.3526 31.8523 14.2106 31.483C14.0714 31.1108 13.8597 30.8168 13.5756 30.6009C13.2944 30.3821 12.9407 30.2727 12.5146 30.2727C12.1055 30.2727 11.7617 30.3764 11.4833 30.5838C11.2049 30.7884 10.9947 31.0753 10.8526 31.4446C10.7106 31.8111 10.6396 32.2386 10.6396 32.7273ZM18.8896 36.1534C18.4748 36.1534 18.0984 36.0753 17.7603 35.919C17.4222 35.7599 17.1538 35.5312 16.9549 35.233C16.756 34.9318 16.6566 34.5682 16.6566 34.142C16.6566 33.767 16.7305 33.4631 16.8782 33.2301C17.0259 32.9943 17.2234 32.8097 17.4705 32.6761C17.7177 32.5426 17.9904 32.4432 18.2887 32.3778C18.5898 32.3097 18.8924 32.2557 19.1964 32.2159C19.5941 32.1648 19.9165 32.1264 20.1637 32.1009C20.4137 32.0724 20.5955 32.0256 20.7092 31.9602C20.8256 31.8949 20.8839 31.7812 20.8839 31.6193V31.5852C20.8839 31.1648 20.7688 30.8381 20.5387 30.6051C20.3114 30.3722 19.9663 30.2557 19.5032 30.2557C19.0231 30.2557 18.6467 30.3608 18.3739 30.571C18.1012 30.7812 17.9094 31.0057 17.7987 31.2443L16.8441 30.9034C17.0146 30.5057 17.2418 30.196 17.5259 29.9744C17.8129 29.75 18.1254 29.5937 18.4634 29.5057C18.8043 29.4148 19.1396 29.3693 19.4691 29.3693C19.6793 29.3693 19.9208 29.3949 20.1935 29.446C20.4691 29.4943 20.7347 29.5952 20.9904 29.7486C21.2489 29.902 21.4634 30.1335 21.6339 30.4432C21.8043 30.7528 21.8896 31.1676 21.8896 31.6875V36H20.8839V35.1136H20.8327C20.7646 35.2557 20.6509 35.4077 20.4918 35.5696C20.3327 35.7315 20.1211 35.8693 19.8569 35.983C19.5927 36.0966 19.2702 36.1534 18.8896 36.1534ZM19.043 35.25C19.4407 35.25 19.7759 35.1719 20.0487 35.0156C20.3242 34.8594 20.5316 34.6577 20.6708 34.4105C20.8129 34.1634 20.8839 33.9034 20.8839 33.6307V32.7102C20.8413 32.7614 20.7475 32.8082 20.6026 32.8509C20.4606 32.8906 20.2958 32.9261 20.1083 32.9574C19.9237 32.9858 19.7433 33.0114 19.5671 33.0341C19.3938 33.054 19.2532 33.071 19.1452 33.0852C18.8839 33.1193 18.6396 33.1747 18.4123 33.2514C18.1879 33.3253 18.006 33.4375 17.8668 33.5881C17.7305 33.7358 17.6623 33.9375 17.6623 34.1932C17.6623 34.5426 17.7915 34.8068 18.0501 34.9858C18.3114 35.1619 18.6424 35.25 19.043 35.25ZM23.7251 36V29.4545H26.4013C27.1058 29.4545 27.6655 29.6136 28.0803 29.9318C28.495 30.25 28.7024 30.6705 28.7024 31.1932C28.7024 31.5909 28.5845 31.8991 28.3487 32.1179C28.1129 32.3338 27.8104 32.4801 27.4411 32.5568C27.6825 32.5909 27.9169 32.6761 28.1442 32.8125C28.3743 32.9489 28.5646 33.1364 28.7152 33.375C28.8658 33.6108 28.9411 33.9006 28.9411 34.2443C28.9411 34.5795 28.8558 34.8793 28.6854 35.1435C28.5149 35.4077 28.2706 35.6165 27.9524 35.7699C27.6342 35.9233 27.2536 36 26.8104 36H23.7251ZM24.6797 35.0795H26.8104C27.157 35.0795 27.4283 34.9972 27.6243 34.8324C27.8203 34.6676 27.9183 34.4432 27.9183 34.1591C27.9183 33.821 27.8203 33.5554 27.6243 33.3622C27.4283 33.1662 27.157 33.0682 26.8104 33.0682H24.6797V35.0795ZM24.6797 32.1989H26.4013C26.6712 32.1989 26.9027 32.1619 27.0959 32.0881C27.2891 32.0114 27.4368 31.9034 27.5391 31.7642C27.6442 31.6222 27.6967 31.4545 27.6967 31.2614C27.6967 30.9858 27.5817 30.7699 27.3516 30.6136C27.1214 30.4545 26.8047 30.375 26.4013 30.375H24.6797V32.1989ZM34.8441 32.267V33.2045H31.2305V32.267H34.8441ZM31.4691 29.4545V36H30.4634V29.4545H31.4691ZM35.6112 29.4545V36H34.6055V29.4545H35.6112ZM40.1921 36.1364C39.5614 36.1364 39.0174 35.9972 38.56 35.7188C38.1055 35.4375 37.7546 35.0455 37.5075 34.5426C37.2631 34.0369 37.141 33.4489 37.141 32.7784C37.141 32.108 37.2631 31.517 37.5075 31.0057C37.7546 30.4915 38.0984 30.0909 38.5387 29.804C38.9819 29.5142 39.4989 29.3693 40.0898 29.3693C40.4308 29.3693 40.7674 29.4261 41.0998 29.5398C41.4322 29.6534 41.7347 29.8381 42.0075 30.0938C42.2802 30.3466 42.4975 30.6818 42.6594 31.0994C42.8214 31.517 42.9023 32.0312 42.9023 32.642V33.0682H37.8569V32.1989H41.8796C41.8796 31.8295 41.8058 31.5 41.658 31.2102C41.5131 30.9205 41.3058 30.6918 41.0359 30.5241C40.7688 30.3565 40.4535 30.2727 40.0898 30.2727C39.6893 30.2727 39.3427 30.3722 39.0501 30.571C38.7603 30.767 38.5373 31.0227 38.381 31.3381C38.2248 31.6534 38.1467 31.9915 38.1467 32.3523V32.9318C38.1467 33.4261 38.2319 33.8452 38.4023 34.1889C38.5756 34.5298 38.8157 34.7898 39.1225 34.9688C39.4293 35.1449 39.7859 35.233 40.1921 35.233C40.4563 35.233 40.695 35.196 40.908 35.1222C41.1239 35.0455 41.31 34.9318 41.4663 34.7812C41.6225 34.6278 41.7433 34.4375 41.8285 34.2102L42.8001 34.483C42.6978 34.8125 42.5259 35.1023 42.2844 35.3523C42.043 35.5994 41.7447 35.7926 41.3896 35.9318C41.0344 36.0682 40.6353 36.1364 40.1921 36.1364ZM48.8129 32.267V33.2045H45.1992V32.267H48.8129ZM45.4379 29.4545V36H44.4322V29.4545H45.4379ZM49.5799 29.4545V36H48.5742V29.4545H49.5799ZM52.4222 34.517L55.5756 29.4545H56.7347V36H55.729V30.9375L52.5927 36H51.4165V29.4545H52.4222V34.517ZM61.321 36.1364C60.6903 36.1364 60.1463 35.9972 59.6889 35.7188C59.2344 35.4375 58.8835 35.0455 58.6364 34.5426C58.392 34.0369 58.2699 33.4489 58.2699 32.7784C58.2699 32.108 58.392 31.517 58.6364 31.0057C58.8835 30.4915 59.2273 30.0909 59.6676 29.804C60.1108 29.5142 60.6278 29.3693 61.2188 29.3693C61.5597 29.3693 61.8963 29.4261 62.2287 29.5398C62.5611 29.6534 62.8636 29.8381 63.1364 30.0938C63.4091 30.3466 63.6264 30.6818 63.7884 31.0994C63.9503 31.517 64.0312 32.0312 64.0312 32.642V33.0682H58.9858V32.1989H63.0085C63.0085 31.8295 62.9347 31.5 62.7869 31.2102C62.642 30.9205 62.4347 30.6918 62.1648 30.5241C61.8977 30.3565 61.5824 30.2727 61.2188 30.2727C60.8182 30.2727 60.4716 30.3722 60.179 30.571C59.8892 30.767 59.6662 31.0227 59.5099 31.3381C59.3537 31.6534 59.2756 31.9915 59.2756 32.3523V32.9318C59.2756 33.4261 59.3608 33.8452 59.5312 34.1889C59.7045 34.5298 59.9446 34.7898 60.2514 34.9688C60.5582 35.1449 60.9148 35.233 61.321 35.233C61.5852 35.233 61.8239 35.196 62.0369 35.1222C62.2528 35.0455 62.4389 34.9318 62.5952 34.7812C62.7514 34.6278 62.8722 34.4375 62.9574 34.2102L63.929 34.483C63.8267 34.8125 63.6548 35.1023 63.4134 35.3523C63.1719 35.5994 62.8736 35.7926 62.5185 35.9318C62.1634 36.0682 61.7642 36.1364 61.321 36.1364Z" fill="#333333"/>
</svg>
