<svg width="568" height="568" viewBox="0 0 568 568" fill="none" xmlns="http://www.w3.org/2000/svg">
<path d="M418.513 57.4448L458.611 26.0491C461.185 24.034 464.905 24.4868 466.92 27.0605L533.465 112.051C535.48 114.625 535.027 118.345 532.454 120.36L492.356 151.755C489.782 153.77 486.062 153.318 484.047 150.744L417.502 65.7536C415.486 63.1799 415.939 59.46 418.513 57.4448Z" fill="#F5F5F5"/>
<path d="M490.991 140.364C491.059 140.432 497.568 135.445 505.531 129.209C513.495 122.972 519.902 117.849 519.845 117.769C519.788 117.69 513.279 122.688 505.304 128.925C497.329 135.161 490.934 140.285 490.991 140.364Z" fill="#E0E0E0"/>
<path d="M430.68 60.0034C430.749 60.083 437.258 55.0846 445.221 48.8479C453.185 42.6113 459.603 37.4879 459.535 37.4084C459.467 37.3289 452.969 42.3273 444.994 48.5639C437.019 54.8006 430.624 59.9239 430.68 60.0034Z" fill="#E0E0E0"/>
<path d="M506.236 128.186C506.315 128.118 492.536 110.397 475.473 88.6081C458.41 66.8197 444.505 49.1889 444.426 49.2457C444.346 49.3025 458.115 67.0241 475.189 88.824C492.263 110.624 506.156 128.243 506.236 128.186Z" fill="#E0E0E0"/>
<path d="M468.168 54.6758L464.544 49.8137L460 53.2217C459.681 53.4592 459.412 53.7573 459.209 54.099C459.005 54.4407 458.871 54.8193 458.814 55.213C458.757 55.6067 458.778 56.0077 458.877 56.3931C458.975 56.7786 459.148 57.1408 459.387 57.459C459.867 58.1028 460.582 58.53 461.377 58.6471C462.171 58.7642 462.979 58.5617 463.624 58.0838L468.168 54.6758Z" fill="#EBEBEB"/>
<path d="M463.727 50.427L467.35 55.2778L471.894 51.8698C472.548 51.3964 472.987 50.6831 473.114 49.8865C473.242 49.0899 473.049 48.2751 472.576 47.6211C472.339 47.302 472.04 47.0329 471.699 46.8293C471.357 46.6256 470.978 46.4915 470.585 46.4345C470.191 46.3775 469.79 46.3988 469.405 46.4972C469.019 46.5955 468.657 46.769 468.339 47.0077L463.727 50.427Z" fill="#E0E0E0"/>
<path d="M444.699 72.6018L441.075 67.7397L436.531 71.1477C435.886 71.6296 435.459 72.347 435.342 73.1431C435.225 73.9393 435.427 74.7494 435.906 75.3964C436.389 76.0391 437.108 76.4644 437.904 76.5793C438.7 76.6943 439.509 76.4895 440.155 76.0098L444.699 72.6018Z" fill="#EBEBEB"/>
<path d="M440.257 68.3418L443.881 73.2039L448.425 69.7959C448.744 69.5584 449.013 69.2603 449.216 68.9186C449.42 68.5769 449.554 68.1983 449.611 67.8046C449.668 67.411 449.647 67.0099 449.549 66.6245C449.45 66.2391 449.277 65.8768 449.038 65.5586C448.801 65.2395 448.502 64.9704 448.161 64.7668C447.819 64.5632 447.441 64.429 447.047 64.372C446.653 64.315 446.252 64.3363 445.867 64.4347C445.481 64.533 445.119 64.7065 444.801 64.9452L440.257 68.3418Z" fill="#E0E0E0"/>
<path d="M478.336 68.0806L474.712 63.2185L470.168 66.6265C469.523 67.1084 469.096 67.8258 468.979 68.6219C468.862 69.418 469.064 70.2282 469.543 70.8751C470.026 71.5179 470.745 71.9431 471.541 72.0581C472.337 72.173 473.146 71.9683 473.792 71.4886L478.336 68.0806Z" fill="#EBEBEB"/>
<path d="M473.905 63.8206L477.518 68.6827L482.062 65.2747C482.381 65.0372 482.65 64.7391 482.853 64.3973C483.057 64.0556 483.191 63.6771 483.248 63.2834C483.305 62.8897 483.284 62.4887 483.186 62.1033C483.087 61.7178 482.914 61.3556 482.675 61.0374C482.438 60.7183 482.139 60.4492 481.798 60.2455C481.456 60.0419 481.077 59.9078 480.684 59.8508C480.29 59.7938 479.889 59.8151 479.504 59.9134C479.118 60.0118 478.756 60.1853 478.438 60.4239L473.905 63.8206Z" fill="#E0E0E0"/>
<path d="M454.332 86.393L450.708 81.5422L446.164 84.9502C445.52 85.43 445.093 86.1455 444.976 86.9398C444.859 87.734 445.061 88.5424 445.539 89.1875C445.777 89.5079 446.075 89.7782 446.418 89.9831C446.76 90.1879 447.139 90.3232 447.534 90.3813C447.929 90.4393 448.331 90.4189 448.718 90.3213C449.104 90.2237 449.468 90.0507 449.788 89.8123L454.332 86.393Z" fill="#EBEBEB"/>
<path d="M449.856 82.1442L453.468 87.0062L458.012 83.5982C458.332 83.3608 458.601 83.0626 458.804 82.7209C459.008 82.3792 459.142 82.0007 459.199 81.607C459.256 81.2133 459.235 80.8123 459.136 80.4268C459.038 80.0414 458.865 79.6792 458.626 79.361C458.146 78.7172 457.431 78.29 456.636 78.1728C455.842 78.0557 455.034 78.2583 454.389 78.7362L449.856 82.1442Z" fill="#E0E0E0"/>
<path d="M488.48 81.4739L484.856 76.6118L480.312 80.0198C479.993 80.2573 479.724 80.5554 479.52 80.8971C479.317 81.2388 479.183 81.6174 479.126 82.0111C479.069 82.4047 479.09 82.8058 479.188 83.1912C479.287 83.5767 479.46 83.9389 479.699 84.2571C480.178 84.9008 480.894 85.3281 481.688 85.4452C482.482 85.5623 483.291 85.3598 483.936 84.8819L488.48 81.4739Z" fill="#EBEBEB"/>
<path d="M484.072 77.2482L487.696 82.1102L492.24 78.7022C492.56 78.4656 492.83 78.1681 493.035 77.8268C493.24 77.4855 493.375 77.1071 493.433 76.7134C493.491 76.3197 493.471 75.9184 493.373 75.5325C493.276 75.1467 493.103 74.7839 492.865 74.465C492.386 73.831 491.677 73.4103 490.891 73.2935C490.105 73.1766 489.305 73.3729 488.662 73.8402L484.072 77.2482Z" fill="#E0E0E0"/>
<path d="M463.965 100.195L460.353 95.3333L455.809 98.7413C455.49 98.9787 455.22 99.2769 455.017 99.6186C454.813 99.9603 454.679 100.339 454.622 100.733C454.565 101.126 454.586 101.527 454.685 101.913C454.783 102.298 454.957 102.66 455.195 102.979C455.675 103.622 456.39 104.05 457.185 104.167C457.979 104.284 458.787 104.081 459.433 103.603L463.965 100.195Z" fill="#EBEBEB"/>
<path d="M459.535 95.9467L463.159 100.809L467.703 97.4008C468.026 97.1657 468.299 96.8691 468.507 96.528C468.715 96.187 468.854 95.8082 468.915 95.4134C468.976 95.0186 468.959 94.6156 468.864 94.2276C468.769 93.8395 468.598 93.4741 468.361 93.1522C467.88 92.5077 467.162 92.0802 466.366 91.9631C465.57 91.846 464.76 92.0489 464.113 92.5274L459.535 95.9467Z" fill="#E0E0E0"/>
<path d="M500.044 95.2422L496.432 90.3801L491.888 93.7881C491.569 94.0256 491.3 94.3237 491.096 94.6655C490.893 95.0072 490.758 95.3857 490.701 95.7794C490.644 96.1731 490.666 96.5741 490.764 96.9595C490.862 97.345 491.036 97.7072 491.275 98.0254C491.512 98.3445 491.81 98.6136 492.152 98.8173C492.494 99.0209 492.872 99.155 493.266 99.212C493.66 99.269 494.061 99.2477 494.446 99.1494C494.831 99.051 495.194 98.8775 495.512 98.6389L500.044 95.2422Z" fill="#EBEBEB"/>
<path d="M495.614 90.9824L499.238 95.8445L503.782 92.4365C504.423 91.9513 504.846 91.2322 504.959 90.4362C505.071 89.6403 504.865 88.832 504.384 88.1878C503.9 87.5451 503.182 87.1198 502.386 87.0049C501.59 86.89 500.781 87.0947 500.135 87.5744L495.614 90.9824Z" fill="#E0E0E0"/>
<path d="M475.302 113.679L471.679 108.817L467.135 112.225C466.815 112.462 466.544 112.76 466.34 113.101C466.135 113.442 466 113.82 465.942 114.214C465.884 114.608 465.904 115.009 466.002 115.395C466.099 115.781 466.272 116.144 466.51 116.463C466.747 116.782 467.045 117.051 467.387 117.255C467.729 117.458 468.107 117.592 468.501 117.649C468.895 117.706 469.296 117.685 469.681 117.587C470.067 117.488 470.429 117.315 470.747 117.076L475.302 113.679Z" fill="#EBEBEB"/>
<path d="M470.861 109.431L474.484 114.282L479.028 110.874C479.671 110.39 480.096 109.672 480.211 108.876C480.326 108.08 480.122 107.271 479.642 106.625C479.404 106.306 479.106 106.037 478.765 105.833C478.423 105.63 478.044 105.495 477.651 105.438C477.257 105.381 476.856 105.403 476.471 105.501C476.085 105.599 475.723 105.773 475.405 106.012L470.861 109.431Z" fill="#E0E0E0"/>
<path d="M510.246 110.749L506.656 105.887L502.112 109.295C501.469 109.778 501.044 110.496 500.929 111.293C500.814 112.089 501.019 112.898 501.499 113.543C501.736 113.862 502.034 114.132 502.376 114.335C502.718 114.539 503.096 114.673 503.49 114.73C503.884 114.787 504.285 114.766 504.67 114.667C505.055 114.569 505.418 114.395 505.736 114.157L510.246 110.749Z" fill="#EBEBEB"/>
<path d="M505.804 106.489L509.428 111.328L513.972 107.92C514.614 107.442 515.041 106.73 515.161 105.938C515.28 105.147 515.081 104.34 514.608 103.694C514.371 103.375 514.072 103.106 513.731 102.902C513.389 102.699 513.01 102.564 512.617 102.507C512.223 102.451 511.822 102.472 511.437 102.57C511.051 102.669 510.689 102.842 510.371 103.081L505.804 106.489Z" fill="#E0E0E0"/>
<path d="M486.696 128.289L483.073 123.427L478.529 126.835C478.209 127.071 477.939 127.369 477.734 127.71C477.529 128.051 477.394 128.43 477.336 128.823C477.278 129.217 477.298 129.618 477.396 130.004C477.493 130.39 477.666 130.753 477.904 131.072C478.141 131.391 478.439 131.66 478.781 131.864C479.123 132.067 479.501 132.201 479.895 132.258C480.289 132.315 480.69 132.294 481.075 132.196C481.461 132.097 481.823 131.924 482.141 131.685L486.696 128.289Z" fill="#EBEBEB"/>
<path d="M482.255 124.028L485.879 128.891L490.423 125.483C491.065 124.999 491.491 124.281 491.606 123.485C491.72 122.689 491.516 121.88 491.036 121.234C490.799 120.915 490.5 120.646 490.159 120.442C489.817 120.238 489.438 120.104 489.045 120.047C488.651 119.99 488.25 120.012 487.865 120.11C487.479 120.208 487.117 120.382 486.799 120.62L482.255 124.028Z" fill="#E0E0E0"/>
<path d="M34.6935 342.458L107.67 367.326C108.406 367.576 109.185 367.678 109.96 367.627C110.736 367.577 111.495 367.374 112.192 367.03C112.889 366.686 113.512 366.208 114.025 365.623C114.537 365.038 114.929 364.358 115.179 363.622L166.083 214.193C166.335 213.457 166.44 212.678 166.391 211.901C166.341 211.125 166.14 210.365 165.797 209.667C165.454 208.968 164.977 208.344 164.392 207.831C163.808 207.317 163.128 206.923 162.391 206.672L89.4146 181.817C87.9292 181.311 86.3039 181.416 84.8958 182.108C83.4878 182.801 82.4122 184.024 81.9056 185.509L31.0015 334.95C30.7496 335.685 30.6452 336.463 30.6945 337.239C30.7438 338.014 30.9458 338.773 31.2888 339.47C31.6318 340.168 32.1091 340.791 32.6933 341.304C33.2776 341.817 33.9573 342.209 34.6935 342.458Z" fill="#EBEBEB"/>
<path d="M129.027 227.359C128.61 228.577 128.565 229.892 128.895 231.137C129.226 232.381 129.918 233.5 130.885 234.35C131.851 235.201 133.048 235.747 134.325 235.917C135.601 236.087 136.899 235.875 138.055 235.308C139.211 234.74 140.173 233.842 140.818 232.728C141.464 231.614 141.764 230.333 141.682 229.048C141.6 227.763 141.138 226.532 140.355 225.509C139.573 224.486 138.505 223.719 137.286 223.303C135.653 222.747 133.866 222.862 132.317 223.622C130.768 224.382 129.585 225.727 129.027 227.359Z" fill="#FAFAFA"/>
<path d="M93.2429 215.17C92.8286 216.386 92.7843 217.698 93.1156 218.94C93.4469 220.182 94.139 221.297 95.1043 222.146C96.0695 222.994 97.2647 223.537 98.5386 223.706C99.8125 223.875 101.108 223.663 102.261 223.096C103.414 222.529 104.374 221.632 105.017 220.52C105.661 219.408 105.961 218.13 105.878 216.848C105.796 215.565 105.335 214.336 104.554 213.315C103.773 212.295 102.707 211.529 101.49 211.114C100.682 210.839 99.8283 210.725 98.9766 210.78C98.1249 210.835 97.2924 211.057 96.5265 211.434C95.7606 211.81 95.0765 212.334 94.5131 212.975C93.9497 213.616 93.5181 214.362 93.2429 215.17Z" fill="#FAFAFA"/>
<path d="M117.701 260.633C117.287 261.849 117.242 263.161 117.574 264.403C117.905 265.644 118.597 266.76 119.562 267.608C120.528 268.457 121.723 269 122.997 269.169C124.271 269.338 125.566 269.126 126.719 268.559C127.873 267.992 128.832 267.095 129.476 265.983C130.119 264.871 130.419 263.593 130.336 262.31C130.254 261.028 129.793 259.799 129.012 258.778C128.231 257.758 127.165 256.992 125.948 256.577C125.141 256.3 124.286 256.186 123.434 256.24C122.582 256.294 121.749 256.515 120.983 256.892C120.216 257.269 119.532 257.793 118.969 258.435C118.406 259.077 117.975 259.824 117.701 260.633Z" fill="#FAFAFA"/>
<path d="M81.9056 248.443C81.4913 249.66 81.447 250.972 81.7783 252.213C82.1096 253.455 82.8017 254.571 83.7669 255.419C84.7322 256.267 85.9274 256.81 87.2013 256.98C88.4752 257.149 89.7707 256.936 90.9239 256.369C92.0771 255.802 93.0363 254.906 93.6801 253.794C94.324 252.682 94.6236 251.403 94.5411 250.121C94.4586 248.839 93.9976 247.609 93.2166 246.589C92.4355 245.568 91.3693 244.802 90.153 244.388C89.3451 244.112 88.491 243.999 87.6393 244.054C86.7876 244.108 85.9551 244.331 85.1892 244.707C84.4234 245.084 83.7392 245.608 83.1758 246.249C82.6124 246.89 82.1808 247.635 81.9056 248.443Z" fill="#FAFAFA"/>
<path d="M106.364 293.917C105.949 295.134 105.905 296.446 106.236 297.688C106.568 298.929 107.26 300.045 108.225 300.893C109.19 301.741 110.385 302.285 111.659 302.454C112.933 302.623 114.229 302.41 115.382 301.843C116.535 301.276 117.494 300.38 118.138 299.268C118.782 298.156 119.082 296.878 118.999 295.595C118.917 294.313 118.456 293.083 117.675 292.063C116.894 291.042 115.827 290.276 114.611 289.862C113.803 289.587 112.949 289.473 112.097 289.528C111.246 289.583 110.413 289.805 109.647 290.181C108.881 290.558 108.197 291.082 107.634 291.723C107.07 292.364 106.639 293.11 106.364 293.917Z" fill="#FAFAFA"/>
<path d="M70.5683 281.728C70.154 282.944 70.1097 284.256 70.441 285.498C70.7724 286.74 71.4644 287.855 72.4297 288.704C73.3949 289.552 74.5901 290.095 75.864 290.264C77.138 290.433 78.4334 290.221 79.5867 289.654C80.7399 289.087 81.699 288.191 82.3429 287.078C82.9867 285.966 83.2863 284.688 83.2038 283.406C83.1213 282.123 82.6604 280.894 81.8793 279.873C81.0982 278.853 80.0321 278.087 78.8157 277.672C78.0079 277.397 77.1538 277.284 76.3021 277.338C75.4504 277.393 74.6178 277.615 73.852 277.992C73.0861 278.368 72.4019 278.892 71.8385 279.533C71.2751 280.174 70.8435 280.92 70.5683 281.728Z" fill="#FAFAFA"/>
<path d="M95.0264 327.168C94.6121 328.385 94.5678 329.697 94.8991 330.938C95.2304 332.18 95.9225 333.295 96.8877 334.144C97.853 334.992 99.0482 335.535 100.322 335.704C101.596 335.874 102.892 335.661 104.045 335.094C105.198 334.527 106.157 333.631 106.801 332.519C107.445 331.406 107.744 330.128 107.662 328.846C107.579 327.563 107.118 326.334 106.337 325.314C105.556 324.293 104.49 323.527 103.274 323.113C102.466 322.837 101.612 322.724 100.76 322.779C99.9085 322.833 99.0759 323.055 98.31 323.432C97.5442 323.809 96.86 324.332 96.2966 324.973C95.7332 325.614 95.3016 326.36 95.0264 327.168Z" fill="#FAFAFA"/>
<path d="M59.2311 315.001C58.8167 316.218 58.7724 317.53 59.1037 318.772C59.435 320.013 60.1271 321.129 61.0924 321.977C62.0577 322.825 63.2528 323.369 64.5267 323.538C65.8007 323.707 67.0961 323.494 68.2493 322.927C69.4026 322.36 70.3617 321.464 71.0056 320.352C71.6494 319.24 71.949 317.962 71.8665 316.679C71.784 315.397 71.323 314.167 70.542 313.147C69.7609 312.126 68.6948 311.36 67.4784 310.946C66.6706 310.671 65.8165 310.557 64.9648 310.612C64.1131 310.667 63.2805 310.889 62.5147 311.265C61.7488 311.642 61.0646 312.166 60.5012 312.807C59.9378 313.448 59.5062 314.194 59.2311 315.001Z" fill="#FAFAFA"/>
<path d="M132.514 223.872C133.207 225.794 134.059 227.656 135.059 229.438C135.902 231.301 136.905 233.088 138.058 234.777C137.365 232.855 136.514 230.993 135.513 229.211C134.673 227.346 133.669 225.56 132.514 223.872Z" fill="#E0E0E0"/>
<path d="M97.4688 211.637C98.1567 213.563 99.0041 215.429 100.002 217.215C100.853 219.074 101.856 220.86 103.001 222.554C102.311 220.628 101.464 218.763 100.468 216.976C99.6136 215.119 98.6107 213.333 97.4688 211.637Z" fill="#E0E0E0"/>
<path d="M120.848 257.145C121.445 259.154 122.205 261.11 123.12 262.995C123.866 264.962 124.778 266.863 125.846 268.675C125.245 266.668 124.485 264.712 123.574 262.825C122.825 260.859 121.913 258.959 120.848 257.145Z" fill="#E0E0E0"/>
<path d="M85.4954 244.876C85.9719 246.822 86.618 248.723 87.4266 250.556C88.076 252.458 88.8855 254.301 89.8463 256.066C89.3679 254.12 88.7218 252.22 87.9151 250.386C87.2602 248.486 86.4509 246.644 85.4954 244.876Z" fill="#E0E0E0"/>
<path d="M110.578 290.282C111.773 293.918 113.294 297.439 115.122 300.802C113.927 297.166 112.406 293.645 110.578 290.282Z" fill="#E0E0E0"/>
<path d="M73.9195 278.649C75.4202 282.235 77.2375 285.679 79.3496 288.942C78.682 287.116 77.8493 285.356 76.8618 283.682C76.0258 281.924 75.0415 280.24 73.9195 278.649Z" fill="#E0E0E0"/>
<path d="M98.2754 324.033C99.0178 325.926 99.9184 327.754 100.968 329.497C101.866 331.321 102.919 333.066 104.114 334.711C102.475 330.992 100.521 327.42 98.2754 324.033Z" fill="#E0E0E0"/>
<path d="M62.5595 310.764C63.1536 312.899 63.9133 314.984 64.8315 317.001C65.5872 319.081 66.5065 321.098 67.5806 323.033C66.9871 320.898 66.2274 318.813 65.3086 316.796C64.5557 314.715 63.6364 312.698 62.5595 310.764Z" fill="#E0E0E0"/>
<path d="M49.5069 332.848C49.5069 332.984 60.4239 336.835 73.9877 341.459C87.5515 346.082 98.6048 349.718 98.6502 349.581C98.6957 349.445 87.7333 345.594 74.1581 340.97C60.5829 336.347 49.5523 332.689 49.5069 332.848Z" fill="#E0E0E0"/>
<path d="M98.1504 199.039C98.1504 199.164 109.067 203.026 122.643 207.649C136.218 212.273 147.248 215.908 147.294 215.772C147.339 215.636 136.377 211.785 122.802 207.161C109.226 202.537 98.1959 198.902 98.1504 199.039Z" fill="#E0E0E0"/>
<path d="M122.018 214.079C122.081 214.096 122.148 214.096 122.211 214.079H122.279L121.779 213.92C121.779 214 121.779 214.113 121.961 214.159C122.143 214.204 122.234 214.159 122.268 214.079L121.768 213.92C121.768 213.92 121.768 213.977 121.768 213.988C121.8 214.021 121.839 214.047 121.882 214.062C121.926 214.078 121.972 214.084 122.018 214.079Z" fill="#E0E0E0"/>
<path d="M75.7485 341.47C75.8848 341.47 86.2451 311.457 98.9001 274.333C111.555 237.208 121.688 207.059 121.552 207.013C121.416 206.968 111.055 237.026 98.4117 274.162C85.768 311.298 75.6121 341.425 75.7485 341.47Z" fill="#E0E0E0"/>
<path d="M346.174 537.416L342.277 478.906L227.92 486.521C226.032 486.647 224.271 487.517 223.025 488.941C221.779 490.365 221.15 492.226 221.275 494.114L224.224 538.388C224.35 540.276 225.22 542.036 226.644 543.282C228.068 544.528 229.928 545.158 231.816 545.032L346.174 537.416Z" fill="#F5F5F5"/>
<path d="M310.394 502.86L312.843 539.63L260.272 543.131L257.823 506.361L310.394 502.86Z" fill="#E0E0E0"/>
<path d="M352.923 475.512L357.289 541.073C357.377 542.388 356.382 543.524 355.067 543.612L339.516 544.648C338.201 544.735 337.065 543.74 336.977 542.426L332.611 476.865C332.523 475.55 333.518 474.413 334.833 474.326L350.384 473.29C351.699 473.203 352.836 474.197 352.923 475.512Z" fill="#EBEBEB"/>
<path d="M336.756 539.214C340.168 539.302 343.583 539.181 346.98 538.85C350.374 538.726 353.758 538.396 357.113 537.862C353.701 537.773 350.286 537.895 346.889 538.225C343.494 538.349 340.11 538.679 336.756 539.214Z" fill="#E0E0E0"/>
<path d="M336.381 533.534C339.774 533.628 343.17 533.506 346.548 533.17C349.943 533.047 353.327 532.717 356.681 532.182C353.288 532.102 349.893 532.223 346.514 532.546C343.119 532.669 339.735 532.999 336.381 533.534Z" fill="#E0E0E0"/>
<path d="M335.995 527.865C339.407 527.954 342.821 527.832 346.219 527.502C349.613 527.378 352.997 527.048 356.352 526.513C352.94 526.424 349.525 526.546 346.128 526.877C342.733 527.001 339.349 527.331 335.995 527.865Z" fill="#E0E0E0"/>
<path d="M335.62 522.185C339.032 522.274 342.447 522.152 345.844 521.822C349.238 521.698 352.622 521.368 355.977 520.833C352.565 520.751 349.151 520.873 345.753 521.197C342.358 521.32 338.974 521.651 335.62 522.185Z" fill="#E0E0E0"/>
<path d="M335.245 516.516C338.638 516.603 342.034 516.482 345.412 516.153C348.811 516.029 352.198 515.699 355.557 515.165C352.144 515.076 348.73 515.197 345.333 515.528C341.953 515.654 338.584 515.984 335.245 516.516Z" fill="#E0E0E0"/>
<path d="M334.859 510.837C338.271 510.925 341.685 510.804 345.083 510.473C348.477 510.349 351.861 510.019 355.216 509.485C351.804 509.402 348.39 509.524 344.992 509.848C341.597 509.973 338.213 510.303 334.859 510.837Z" fill="#E0E0E0"/>
<path d="M334.484 505.168C337.896 505.257 341.311 505.135 344.708 504.805C348.102 504.681 351.486 504.351 354.841 503.816C351.429 503.727 348.014 503.849 344.617 504.18C341.222 504.304 337.838 504.634 334.484 505.168Z" fill="#E0E0E0"/>
<path d="M334.109 499.488C337.521 499.577 340.936 499.455 344.333 499.124C347.728 499 351.111 498.67 354.466 498.136C351.054 498.054 347.64 498.176 344.242 498.5C340.847 498.623 337.463 498.953 334.109 499.488Z" fill="#E0E0E0"/>
<path d="M333.734 493.819C337.127 493.906 340.523 493.785 343.901 493.456C347.296 493.332 350.68 493.002 354.034 492.467C350.622 492.378 347.208 492.499 343.81 492.831C340.435 492.957 337.07 493.287 333.734 493.819Z" fill="#E0E0E0"/>
<path d="M333.348 488.139C336.76 488.228 340.175 488.107 343.572 487.776C346.966 487.652 350.35 487.322 353.705 486.787C350.293 486.706 346.879 486.827 343.481 487.151C340.086 487.275 336.702 487.605 333.348 488.139Z" fill="#E0E0E0"/>
<path d="M332.973 482.471C336.385 482.559 339.8 482.438 343.197 482.107C346.592 481.983 349.976 481.653 353.33 481.119C349.918 481.03 346.503 481.151 343.106 481.482C339.711 481.606 336.327 481.936 332.973 482.471Z" fill="#E0E0E0"/>
<path d="M332.598 476.791C335.991 476.878 339.387 476.756 342.765 476.427C346.164 476.303 349.551 475.973 352.91 475.439C349.498 475.35 346.083 475.471 342.686 475.802C339.306 475.928 335.938 476.258 332.598 476.791Z" fill="#E0E0E0"/>
<path d="M235.442 533.556L238.74 533.337C239.642 533.277 240.483 532.861 241.078 532.181C241.673 531.501 241.974 530.612 241.914 529.71L241.167 518.488L230.965 519.168L231.713 530.389C231.743 530.845 231.864 531.289 232.069 531.697C232.274 532.104 232.559 532.466 232.907 532.762C233.255 533.057 233.658 533.28 234.094 533.416C234.529 533.553 234.987 533.6 235.442 533.556Z" fill="#EBEBEB"/>
<path d="M237.979 507.997L234.571 508.235C233.667 508.298 232.825 508.718 232.231 509.402C231.636 510.086 231.338 510.978 231.401 511.882L232.188 523.128L242.412 522.412L241.625 511.166C241.562 510.262 241.142 509.42 240.458 508.826C239.774 508.232 238.882 507.933 237.979 507.997Z" fill="#E0E0E0"/>
<path d="M259.363 497.574L260.223 500.781C260.458 501.657 261.031 502.405 261.817 502.859C262.604 503.312 263.538 503.435 264.414 503.2L275.323 500.276L272.665 490.359L261.756 493.283C261.314 493.401 260.899 493.608 260.538 493.889C260.176 494.171 259.875 494.522 259.652 494.922C259.429 495.322 259.288 495.763 259.238 496.219C259.189 496.674 259.231 497.135 259.363 497.574Z" fill="#EBEBEB"/>
<path d="M284.53 493.144L283.675 489.95C283.442 489.077 282.871 488.333 282.088 487.881C281.305 487.429 280.375 487.306 279.502 487.54L268.638 490.449L271.283 500.325L282.146 497.416C282.587 497.298 283 497.093 283.36 496.813C283.72 496.532 284.02 496.183 284.242 495.784C284.465 495.386 284.605 494.947 284.654 494.493C284.704 494.039 284.662 493.581 284.53 493.144Z" fill="#E0E0E0"/>
<path d="M227.442 492.344L226.55 495.518C226.306 496.386 226.416 497.315 226.857 498.101C227.298 498.887 228.034 499.466 228.901 499.71L239.698 502.746L242.458 492.931L231.662 489.895C231.224 489.771 230.766 489.737 230.314 489.794C229.863 489.851 229.427 489.998 229.034 490.227C228.64 490.455 228.297 490.76 228.023 491.124C227.75 491.488 227.552 491.903 227.442 492.344Z" fill="#EBEBEB"/>
<path d="M258.379 502.739L259.272 499.565C259.516 498.698 259.405 497.768 258.964 496.982C258.523 496.196 257.788 495.617 256.92 495.373L246.08 492.325L243.319 502.14L254.116 505.176C254.556 505.307 255.018 505.346 255.474 505.293C255.929 505.24 256.37 505.096 256.768 504.868C257.166 504.64 257.515 504.334 257.791 503.968C258.068 503.602 258.268 503.184 258.379 502.739Z" fill="#E0E0E0"/>
<path d="M253.657 532.987L256.718 531.739C257.555 531.398 258.222 530.738 258.573 529.905C258.923 529.071 258.928 528.133 258.587 527.296L254.339 516.883L244.872 520.744L249.12 531.158C249.461 531.995 250.121 532.662 250.954 533.012C251.787 533.362 252.726 533.367 253.563 533.026L253.657 532.987Z" fill="#EBEBEB"/>
<path d="M246.278 506.129L243.217 507.377C242.38 507.719 241.713 508.379 241.363 509.212C241.013 510.045 241.008 510.983 241.349 511.82L245.596 522.234L255.063 518.372L250.816 507.959C250.644 507.536 250.388 507.153 250.065 506.83C249.742 506.508 249.357 506.254 248.934 506.084C248.511 505.913 248.058 505.829 247.602 505.837C247.145 505.845 246.695 505.944 246.278 506.129Z" fill="#E0E0E0"/>
<path d="M95.1514 86.3362L87.472 96.1058C87.332 96.2892 87.2691 96.5201 87.2967 96.7492C87.3243 96.9783 87.4401 97.1876 87.6197 97.3326L97.4915 105.001C98.2252 105.573 99.0645 105.995 99.9613 106.242C100.858 106.489 101.795 106.558 102.718 106.443C103.641 106.327 104.533 106.032 105.342 105.572C106.15 105.112 106.861 104.497 107.432 103.762C108.004 103.028 108.426 102.188 108.674 101.29C108.921 100.392 108.989 99.4543 108.874 98.5302C108.759 97.606 108.463 96.7136 108.003 95.9038C107.543 95.0941 106.928 94.383 106.193 93.811L96.3214 86.143C96.137 86.025 95.9154 85.9793 95.6993 86.015C95.4833 86.0507 95.2881 86.1651 95.1514 86.3362Z" fill="#EBEBEB"/>
<path d="M89.4032 97.5597L97.0372 87.756C97.1073 87.665 97.1588 87.5611 97.1887 87.4502C97.2187 87.3393 97.2265 87.2236 97.2117 87.1096C97.197 86.9957 97.1599 86.8858 97.1027 86.7862C97.0454 86.6866 96.9691 86.5992 96.8781 86.5291L87.0176 78.8611C86.2839 78.289 85.4447 77.8672 84.5478 77.6198C83.6509 77.3724 82.7141 77.3043 81.7909 77.4193C80.8676 77.5343 79.9762 77.8302 79.1674 78.2901C78.3587 78.7499 77.6485 79.3648 77.0776 80.0994C76.5052 80.834 76.0832 81.6742 75.8356 82.5719C75.588 83.4697 75.5198 84.4075 75.6348 85.3316C75.7498 86.2558 76.0457 87.1482 76.5058 87.9579C76.9658 88.7677 77.5809 89.4788 78.3159 90.0507L88.1763 97.696C88.3573 97.8402 88.588 97.9067 88.8179 97.8812C89.0479 97.8556 89.2583 97.74 89.4032 97.5597Z" fill="#E0E0E0"/>
<path d="M532.42 318.943L520.731 323.192C520.511 323.274 520.333 323.439 520.235 323.652C520.137 323.865 520.128 324.108 520.208 324.328L524.48 336.063C524.797 336.939 525.284 337.744 525.912 338.432C526.541 339.12 527.299 339.677 528.143 340.071C528.987 340.466 529.901 340.69 530.832 340.732C531.762 340.773 532.692 340.63 533.568 340.312C535.335 339.668 536.775 338.35 537.572 336.646C538.369 334.943 538.457 332.992 537.816 331.224L533.545 319.489C533.508 319.378 533.449 319.276 533.373 319.189C533.296 319.102 533.202 319.03 533.097 318.98C532.993 318.929 532.879 318.9 532.763 318.893C532.646 318.887 532.53 318.904 532.42 318.943Z" fill="#EBEBEB"/>
<path d="M521.549 325.43L533.227 321.181C533.338 321.143 533.439 321.084 533.526 321.005C533.613 320.927 533.683 320.832 533.732 320.725C533.781 320.619 533.807 320.504 533.81 320.387C533.814 320.27 533.793 320.154 533.75 320.045L529.478 308.299C529.161 307.423 528.674 306.618 528.046 305.931C527.417 305.243 526.658 304.687 525.814 304.293C524.97 303.9 524.056 303.677 523.125 303.637C522.195 303.597 521.265 303.742 520.39 304.062C519.514 304.379 518.709 304.866 518.022 305.494C517.335 306.123 516.778 306.882 516.385 307.726C515.991 308.57 515.768 309.484 515.728 310.415C515.688 311.346 515.833 312.275 516.153 313.15L520.424 324.896C520.504 325.115 520.667 325.294 520.877 325.394C521.088 325.494 521.329 325.507 521.549 325.43Z" fill="#E0E0E0"/>
<path d="M42.032 544.076C42.032 544.246 150.906 544.371 285.136 544.371C419.366 544.371 528.24 544.246 528.24 544.076C528.24 543.905 419.388 543.781 285.079 543.781C150.77 543.781 42.032 543.917 42.032 544.076Z" fill="#263238"/>
<path d="M134.855 42.2251H408.596C414.933 42.2251 420.07 47.362 420.07 53.6987V422.615C420.07 428.951 414.933 434.088 408.596 434.088H134.855C128.518 434.088 123.381 428.951 123.381 422.615V53.6987C123.381 47.362 128.518 42.2251 134.855 42.2251Z" fill="#455A64"/>
<path d="M143.261 60.7419H400.213V407.165H143.261V60.7419Z" fill="white"/>
<path d="M143.25 407.165C143.25 404.802 143.363 265.858 143.522 60.6851L143.25 60.9464H400.179L399.883 60.6511C399.883 189.848 399.883 309.56 399.883 407.131L400.133 406.881L143.17 407.131L400.133 407.37H400.372V407.131C400.372 309.617 400.372 189.905 400.429 60.6511V60.3557H400.099H143.17H142.909V60.6284C143.136 265.824 143.25 404.802 143.25 407.165Z" fill="#263238"/>
<path d="M346.117 118.882L352.103 109.874H358.726V118.882H365.917V86.5518H352.467C349.997 86.4932 347.545 86.982 345.287 87.9832C343.366 88.8398 341.738 90.2422 340.607 92.016C339.472 93.8941 338.9 96.0589 338.96 98.2526C338.89 100.458 339.471 102.634 340.63 104.512C341.771 106.276 343.412 107.66 345.344 108.488L338.369 118.882H346.117ZM347.934 94.1062C349.348 93.0411 351.099 92.5245 352.864 92.6522H358.726V103.921H352.864C351.094 104.043 349.341 103.514 347.934 102.433C346.848 101.319 346.24 99.8253 346.24 98.2697C346.24 96.7141 346.848 95.22 347.934 94.1062Z" fill="#00AB38"/>
<path d="M330.383 141.228L337.494 130.64L344.481 141.273H352.308L341.402 125.699L351.762 110.647H344.015L337.199 120.575L330.576 110.601H323.215L333.439 125.369L322.454 141.205L330.383 141.228Z" fill="#00AB38"/>
<path d="M232.482 94.2766H276.582V105.194H232.482V94.2766Z" fill="#E0E0E0"/>
<path d="M167.81 101.172C167.81 101.342 179.874 101.467 194.756 101.467C209.637 101.467 221.69 101.342 221.69 101.172C221.69 101.002 209.637 100.877 194.756 100.877C179.874 100.877 167.81 101.013 167.81 101.172Z" fill="#263238"/>
<path d="M168.821 114.27C168.821 114.429 192.95 114.566 222.701 114.566C252.453 114.566 276.582 114.429 276.582 114.27C276.582 114.111 252.465 113.964 222.701 113.964C192.938 113.964 168.821 114.1 168.821 114.27Z" fill="#263238"/>
<path d="M168.821 127.096C168.821 127.255 192.95 127.391 222.701 127.391C252.453 127.391 276.582 127.255 276.582 127.096C276.582 126.937 252.465 126.8 222.701 126.8C192.938 126.8 168.821 126.925 168.821 127.096Z" fill="#263238"/>
<path d="M152.008 161.312C152.008 161.471 205.616 161.607 271.72 161.607C337.824 161.607 391.443 161.471 391.443 161.312C391.443 161.153 337.858 161.005 271.72 161.005C205.582 161.005 152.008 161.119 152.008 161.312Z" fill="#263238"/>
<path d="M152.008 354.955C152.008 355.114 205.616 355.25 271.72 355.25C337.824 355.25 391.443 355.114 391.443 354.955C391.443 354.795 337.858 354.659 271.72 354.659C205.582 354.659 152.008 354.784 152.008 354.955Z" fill="#263238"/>
<path d="M297.848 180.885H371.722V194.744H297.848V180.885Z" fill="#E0E0E0"/>
<path d="M339.744 374.721H371.722V388.58H339.744V374.721Z" fill="#E0E0E0"/>
<path d="M232.369 374.721H264.347V388.58H232.369V374.721Z" fill="#E0E0E0"/>
<path d="M286.147 384.32C286.147 384.491 296.132 384.616 308.447 384.616C320.761 384.616 330.758 384.491 330.758 384.32C330.758 384.15 320.772 384.025 308.447 384.025C296.121 384.025 286.147 384.161 286.147 384.32Z" fill="#263238"/>
<path d="M171.32 384.32C171.32 384.491 181.306 384.616 193.62 384.616C205.934 384.616 215.931 384.491 215.931 384.32C215.931 384.15 205.945 384.025 193.62 384.025C181.294 384.025 171.32 384.161 171.32 384.32Z" fill="#263238"/>
<path d="M173.967 215.613C173.967 215.772 217.737 215.908 271.663 215.908C325.589 215.908 369.359 215.772 369.359 215.613C369.359 215.454 325.612 215.317 271.663 215.317C217.714 215.317 173.967 215.442 173.967 215.613Z" fill="#263238"/>
<path d="M170.173 231.426C170.173 231.596 214.783 231.721 269.8 231.721C324.816 231.721 369.439 231.596 369.439 231.426C369.439 231.256 324.839 231.131 269.8 231.131C214.761 231.131 170.173 231.267 170.173 231.426Z" fill="#263238"/>
<path d="M272.844 247.25C272.844 247.409 294.985 247.546 322.283 247.546C349.581 247.546 371.722 247.409 371.722 247.25C371.722 247.091 349.593 246.955 322.283 246.955C294.974 246.955 272.844 247.08 272.844 247.25Z" fill="#263238"/>
<path d="M171.638 304.618C171.638 304.618 171.854 304.709 172.297 304.846L174.228 305.436C176.724 306.179 179.262 306.771 181.828 307.208C183.682 307.535 185.558 307.713 187.44 307.742C189.691 307.787 191.937 307.508 194.108 306.913C196.61 306.198 198.914 304.919 200.845 303.176C203.022 301.187 204.453 298.513 204.9 295.599C205.134 294.024 204.942 292.416 204.344 290.941C203.674 289.407 202.578 288.098 201.186 287.169C200.466 286.671 199.655 286.321 198.798 286.139C197.942 285.958 197.058 285.949 196.199 286.113C195.328 286.327 194.509 286.713 193.79 287.249C193.089 287.836 192.503 288.549 192.064 289.351C191.228 291.012 190.811 292.853 190.848 294.712C190.84 296.615 191.187 298.503 191.87 300.279C193.353 303.955 195.798 307.165 198.948 309.571C202.247 312.136 206.166 313.782 210.308 314.343C212.431 314.645 214.588 314.619 216.703 314.263C217.778 314.09 218.837 313.836 219.873 313.502C220.908 313.121 221.917 312.673 222.895 312.161C224.844 311.074 226.58 309.642 228.018 307.936C229.505 306.193 230.546 304.115 231.051 301.881C231.606 299.585 231.32 297.167 230.244 295.065C229.177 292.937 227.407 291.244 225.235 290.271C224.135 289.773 222.928 289.562 221.724 289.657C220.532 289.776 219.392 290.207 218.419 290.907C216.572 292.371 215.297 294.438 214.818 296.746C214.295 298.956 214.172 301.241 214.454 303.494C214.676 305.7 215.168 307.871 215.92 309.958C217.313 314.075 219.775 317.748 223.054 320.602C226.24 323.336 230.225 324.965 234.414 325.248C238.283 325.642 242.166 324.646 245.368 322.437C248.569 320.229 250.88 316.952 251.885 313.195C252.913 309.841 252.777 306.238 251.499 302.971C250.898 301.413 249.866 300.057 248.523 299.063C247.851 298.572 247.072 298.249 246.251 298.121C245.443 298.001 244.619 298.157 243.911 298.564C243.262 298.986 242.72 299.552 242.326 300.218C241.932 300.884 241.697 301.632 241.639 302.403C241.449 303.815 241.506 305.249 241.809 306.641C242.258 309.179 243.021 311.652 244.081 314.002C244.999 316.042 246.142 317.974 247.489 319.761C248.614 321.275 249.885 322.676 251.283 323.942C253.19 325.721 255.339 327.22 257.668 328.395C258.265 328.713 258.879 328.998 259.508 329.247L260.155 329.497L259.531 329.19C259.122 328.986 258.485 328.736 257.713 328.293C255.424 327.067 253.311 325.539 251.431 323.749C248.448 320.938 246.04 317.573 244.342 313.843C243.282 311.521 242.518 309.074 242.07 306.561C241.793 305.204 241.743 303.811 241.923 302.437C241.978 301.73 242.193 301.045 242.551 300.433C242.909 299.822 243.401 299.299 243.99 298.904C244.62 298.545 245.352 298.409 246.069 298.518C246.807 298.65 247.503 298.954 248.102 299.404C249.377 300.348 250.354 301.637 250.92 303.119C252.15 306.296 252.266 309.796 251.249 313.048C250.262 316.683 248.016 319.85 244.913 321.984C241.809 324.119 238.048 325.082 234.3 324.703C230.238 324.41 226.378 322.817 223.292 320.159C220.092 317.369 217.692 313.777 216.34 309.753C215.61 307.705 215.129 305.577 214.908 303.414C214.637 301.229 214.761 299.013 215.272 296.871C215.722 294.696 216.93 292.751 218.68 291.384C219.574 290.741 220.623 290.348 221.72 290.246C222.816 290.144 223.92 290.337 224.917 290.805C226.968 291.73 228.638 293.335 229.642 295.349C230.651 297.322 230.917 299.591 230.392 301.744C229.844 303.852 228.861 305.821 227.507 307.527C226.154 309.233 224.459 310.637 222.531 311.65C221.586 312.142 220.611 312.575 219.612 312.945C216.613 313.922 213.432 314.206 210.308 313.775C208.28 313.492 206.298 312.946 204.412 312.15C202.569 311.364 200.832 310.349 199.243 309.128C196.163 306.775 193.773 303.636 192.325 300.04C191.66 298.327 191.317 296.505 191.314 294.667C191.274 292.893 191.664 291.135 192.45 289.544C192.861 288.801 193.399 288.135 194.04 287.578C194.694 287.054 195.448 286.668 196.255 286.442C197.054 286.289 197.875 286.297 198.671 286.465C199.467 286.632 200.221 286.957 200.89 287.419C202.213 288.289 203.255 289.525 203.889 290.975C204.466 292.38 204.659 293.913 204.446 295.417C204.015 298.239 202.637 300.831 200.538 302.767C198.655 304.481 196.405 305.744 193.961 306.459C191.825 307.06 189.613 307.35 187.395 307.322C185.526 307.31 183.661 307.15 181.817 306.845C179.256 306.426 176.719 305.872 174.217 305.186L172.263 304.653L171.638 304.618Z" fill="#263238"/>
<path d="M228.859 38.8967H314.604V71.6817H228.859V38.8967Z" fill="#E0E0E0"/>
<path d="M228.859 71.6703C228.859 71.6703 228.859 71.4658 228.859 71.0795C228.859 70.6933 228.859 70.1139 228.859 69.3755C228.859 67.8647 228.859 65.6835 228.859 62.8663C228.859 57.1863 228.927 49.0411 228.972 38.8967L228.768 39.1011L314.502 39.192L314.206 38.8967C314.206 50.3475 314.206 61.4235 314.206 71.6703L314.49 71.3863L253.146 71.5226L235.277 71.6021H230.472H229.222H228.79C228.923 71.6134 229.056 71.6134 229.188 71.6021H230.404H235.141L252.953 71.6816L314.536 71.8066H314.82V71.5226C314.82 61.2986 314.82 50.1999 314.82 38.749L314.524 38.4536L228.79 38.5445H228.586V38.749C228.586 48.973 228.665 57.1522 228.7 62.8435C228.7 65.6381 228.7 67.8079 228.7 69.3074C228.7 70.0231 228.7 70.5797 228.7 70.9773C228.7 71.3749 228.859 71.6703 228.859 71.6703Z" fill="#263238"/>
<path d="M126.164 543.576H181.692C182.883 543.576 184.027 543.108 184.877 542.273C185.727 541.438 186.215 540.303 186.236 539.111L187.576 389.353H123.029L121.688 539.021C121.685 540.216 122.153 541.364 122.991 542.217C123.829 543.07 124.969 543.558 126.164 543.576Z" fill="#00AB38"/>
<g opacity="0.3">
<path d="M134.332 422.592V537.885C134.332 537.885 125.244 540.906 124.801 532.954C124.358 525.002 124.597 422.569 124.597 422.569L134.332 422.592Z" fill="white"/>
</g>
<path d="M129.118 381.753H181.374C182.278 381.753 183.144 382.112 183.784 382.751C184.423 383.39 184.782 384.257 184.782 385.161V388.512H125.71V385.104C125.725 384.21 126.09 383.358 126.728 382.731C127.365 382.104 128.224 381.753 129.118 381.753Z" fill="#FAFAFA"/>
<path d="M129.118 381.753C128.929 381.725 128.738 381.725 128.55 381.753C127.989 381.823 127.456 382.038 127.005 382.378C126.63 382.655 126.315 383.005 126.079 383.408C125.843 383.81 125.69 384.255 125.63 384.718C125.63 385.854 125.63 386.99 125.63 388.444V388.58H125.778C136.604 388.66 157.518 388.728 181.442 388.728H185.134V385.263C185.152 384.699 185.041 384.138 184.811 383.622C184.581 383.107 184.237 382.65 183.805 382.287C183.372 381.927 182.863 381.67 182.317 381.537C181.792 381.443 181.259 381.409 180.726 381.435H177.705H166.22L146.908 381.503L133.923 381.594L146.908 381.685L166.22 381.753H177.705H180.726C181.213 381.724 181.701 381.754 182.18 381.844C182.637 381.959 183.064 382.172 183.43 382.469C185.066 383.707 184.407 386.092 184.566 388.149L184.861 387.853H181.453C157.495 387.853 136.581 387.91 125.789 388.001L125.937 388.149C125.937 386.751 125.937 385.49 125.937 384.457C125.981 384.014 126.113 383.585 126.325 383.195C126.538 382.804 126.827 382.461 127.175 382.185C127.774 381.873 128.444 381.725 129.118 381.753Z" fill="#263238"/>
<path d="M119.201 386.887H191.348C193.004 386.887 194.347 388.23 194.347 389.886V419.57C194.347 421.226 193.004 422.569 191.348 422.569H119.201C117.544 422.569 116.202 421.226 116.202 419.57V389.886C116.202 388.23 117.544 386.887 119.201 386.887Z" fill="#FAFAFA"/>
<path d="M119.201 422.592C119.201 422.592 118.996 422.592 118.633 422.501C118.088 422.387 117.587 422.119 117.19 421.729C115.861 420.729 116.395 418.321 116.315 415.56C116.315 409.88 116.372 401.758 116.406 391.704C116.406 391.079 116.406 390.443 116.406 389.796C116.425 389.189 116.645 388.606 117.031 388.137C117.433 387.66 117.979 387.325 118.587 387.183C119.243 387.112 119.904 387.093 120.564 387.126H129.129H148.032H191.325C191.759 387.123 192.186 387.225 192.572 387.423C192.958 387.621 193.29 387.908 193.54 388.262C193.784 388.598 193.943 388.988 194.006 389.398C194.03 389.86 194.03 390.322 194.006 390.784V407.483C194.006 411.096 194.006 414.651 194.006 418.139V419.445C194.004 419.837 193.919 420.225 193.756 420.581C193.595 420.935 193.359 421.25 193.065 421.505C192.771 421.76 192.425 421.948 192.052 422.058C191.664 422.166 191.261 422.205 190.859 422.172H187.088L151.724 422.229L127.868 422.331H121.393L127.868 422.388L151.724 422.478L187.088 422.547H190.859C191.311 422.579 191.764 422.533 192.2 422.41C192.651 422.28 193.069 422.054 193.426 421.749C193.783 421.443 194.07 421.064 194.267 420.638C194.46 420.205 194.561 419.737 194.563 419.264V417.957C194.563 414.473 194.563 410.922 194.563 407.302C194.563 403.678 194.563 399.986 194.563 396.248V390.568C194.563 390.08 194.563 389.637 194.563 389.103C194.485 388.58 194.287 388.082 193.983 387.649C193.679 387.219 193.275 386.868 192.807 386.627C192.338 386.386 191.818 386.261 191.291 386.263H147.998H129.095H120.53C119.836 386.228 119.14 386.254 118.451 386.342C117.747 386.52 117.118 386.918 116.656 387.478C116.216 388.029 115.965 388.706 115.94 389.41V391.329C115.94 401.372 116.02 409.505 116.042 415.185C116.042 416.583 116.042 417.832 116.042 418.923C116.008 419.391 116.08 419.862 116.253 420.298C116.426 420.735 116.696 421.127 117.042 421.445C117.46 421.837 117.987 422.094 118.553 422.183C118.738 422.363 118.959 422.502 119.201 422.592Z" fill="#263238"/>
<path d="M189.803 421.979C189.973 421.979 190.098 414.379 190.098 405.018C190.098 395.658 189.973 388.046 189.803 388.046C189.632 388.046 189.508 395.646 189.508 405.018C189.508 414.39 189.644 421.979 189.803 421.979Z" fill="#263238"/>
<path d="M183.896 421.979C184.066 421.979 184.191 414.379 184.191 405.018C184.191 395.658 184.066 388.046 183.896 388.046C183.725 388.046 183.6 395.646 183.6 405.018C183.6 414.39 183.737 421.979 183.896 421.979Z" fill="#263238"/>
<path d="M177.989 421.979C178.148 421.979 178.284 414.379 178.284 405.018C178.284 395.658 178.148 388.046 177.989 388.046C177.829 388.046 177.693 395.646 177.693 405.018C177.693 414.39 177.829 421.979 177.989 421.979Z" fill="#263238"/>
<path d="M172.081 421.979C172.24 421.979 172.377 414.379 172.377 405.018C172.377 395.658 172.24 388.046 172.081 388.046C171.922 388.046 171.786 395.646 171.786 405.018C171.786 414.39 171.911 421.979 172.081 421.979Z" fill="#263238"/>
<path d="M166.163 421.979C166.333 421.979 166.458 414.379 166.458 405.018C166.458 395.658 166.333 388.046 166.163 388.046C165.992 388.046 165.867 395.646 165.867 405.018C165.867 414.39 166.004 421.979 166.163 421.979Z" fill="#263238"/>
<path d="M160.256 421.979C160.426 421.979 160.551 414.379 160.551 405.018C160.551 395.658 160.426 388.046 160.256 388.046C160.085 388.046 159.96 395.646 159.96 405.018C159.96 414.39 160.097 421.979 160.256 421.979Z" fill="#263238"/>
<path d="M154.348 421.979C154.507 421.979 154.644 414.379 154.644 405.018C154.644 395.658 154.507 388.046 154.348 388.046C154.189 388.046 154.053 395.646 154.053 405.018C154.053 414.39 154.189 421.979 154.348 421.979Z" fill="#263238"/>
<path d="M148.441 421.979C148.6 421.979 148.737 414.379 148.737 405.018C148.737 395.658 148.6 388.046 148.441 388.046C148.282 388.046 148.146 395.646 148.146 405.018C148.146 414.39 148.271 421.979 148.441 421.979Z" fill="#263238"/>
<path d="M142.534 421.979C142.693 421.979 142.829 414.379 142.829 405.018C142.829 395.658 142.693 388.046 142.534 388.046C142.375 388.046 142.227 395.646 142.227 405.018C142.227 414.39 142.364 421.979 142.534 421.979Z" fill="#263238"/>
<path d="M136.615 421.979C136.786 421.979 136.911 414.379 136.911 405.018C136.911 395.658 136.786 388.046 136.615 388.046C136.445 388.046 136.32 395.646 136.32 405.018C136.32 414.39 136.456 421.979 136.615 421.979Z" fill="#263238"/>
<path d="M130.708 421.979C130.867 421.979 131.004 414.379 131.004 405.018C131.004 395.658 130.867 388.046 130.708 388.046C130.549 388.046 130.413 395.646 130.413 405.018C130.413 414.39 130.549 421.979 130.708 421.979Z" fill="#263238"/>
<path d="M124.801 421.979C124.96 421.979 125.096 414.379 125.096 405.018C125.096 395.658 124.96 388.046 124.801 388.046C124.642 388.046 124.506 395.646 124.506 405.018C124.506 414.39 124.631 421.979 124.801 421.979Z" fill="#263238"/>
<path d="M118.894 421.979C119.053 421.979 119.189 414.379 119.189 405.018C119.189 395.658 119.053 388.046 118.894 388.046C118.735 388.046 118.598 395.646 118.598 405.018C118.598 414.39 118.723 421.979 118.894 421.979Z" fill="#263238"/>
<path d="M126.607 449.447H182.487V494.194H126.607V449.447Z" fill="white"/>
<path d="M172.888 463.693L174.194 461.807H175.626V463.693H177.216V456.945H174.296C173.765 456.932 173.238 457.036 172.752 457.251C172.335 457.424 171.979 457.717 171.729 458.092C171.486 458.483 171.363 458.938 171.377 459.398C171.365 459.857 171.491 460.308 171.74 460.694C171.992 461.065 172.348 461.353 172.763 461.523L171.252 463.693H172.888ZM173.285 458.524C173.595 458.3 173.972 458.192 174.353 458.217H175.626V460.569H174.353C173.972 460.594 173.595 460.486 173.285 460.262C173.17 460.149 173.078 460.013 173.015 459.864C172.952 459.715 172.92 459.555 172.92 459.393C172.92 459.231 172.952 459.071 173.015 458.921C173.078 458.772 173.17 458.637 173.285 458.524Z" fill="#263238"/>
<path d="M169.48 468.35L171.025 466.135L172.536 468.35H174.228L171.865 465.101L174.137 461.966H172.456L170.991 464.033L169.548 461.966H167.946L170.218 465.044L167.844 468.35H169.48Z" fill="#263238"/>
<path d="M130.708 456.933H162.618V461.784H130.708V456.933Z" fill="#E0E0E0"/>
<path d="M134.332 473.826C134.332 473.985 143.647 474.121 155.144 474.121C166.64 474.121 175.955 473.985 175.955 473.826C175.955 473.667 166.64 473.53 155.144 473.53C143.647 473.53 134.332 473.712 134.332 473.826Z" fill="#263238"/>
<path d="M134.332 478.87C134.332 479.04 143.647 479.165 155.144 479.165C166.64 479.165 175.955 479.04 175.955 478.87C175.955 478.699 166.64 478.574 155.144 478.574C143.647 478.574 134.332 478.711 134.332 478.87Z" fill="#263238"/>
<path d="M157.404 485.197H178.965V489.355H157.404V485.197Z" fill="#E0E0E0"/>
<path d="M127.88 492.808C127.88 492.808 127.88 492.536 127.88 492.013C127.88 491.49 127.88 490.718 127.88 489.741C127.88 487.73 127.88 484.834 127.936 481.142C127.936 473.735 128.016 463.193 128.061 450.47L127.823 450.719H181.385C181.453 450.776 180.829 450.163 181.09 450.435V461.705C181.09 465.408 181.09 469.043 181.09 472.587C181.09 479.687 181.09 486.458 181.09 492.763L181.351 492.502L142.727 492.638L131.753 492.706H128.822H127.8C127.8 492.706 127.868 492.706 128.039 492.706H128.766H131.64L142.557 492.774L181.362 492.91H181.624V492.638C181.624 486.333 181.624 479.562 181.624 472.462C181.624 468.918 181.624 465.283 181.624 461.58V450.31C181.885 450.56 181.26 449.936 181.328 450.004H127.766H127.516V450.254C127.516 463.034 127.618 473.644 127.641 481.085C127.641 484.743 127.698 487.628 127.709 489.627C127.709 490.582 127.709 491.32 127.709 491.899C127.709 492.479 127.88 492.808 127.88 492.808Z" fill="#263238"/>
<path d="M183.896 531.364C184.066 531.364 184.191 508.008 184.191 479.199C184.191 450.39 184.066 427.034 183.896 427.034C183.725 427.034 183.6 450.39 183.6 479.199C183.6 508.008 183.737 531.364 183.896 531.364Z" fill="white"/>
<path d="M126.55 541.145C126.55 541.304 138.74 541.44 153.814 541.44C168.889 541.44 181.078 541.304 181.078 541.145C181.078 540.986 168.889 540.85 153.814 540.85C138.74 540.85 126.55 540.986 126.55 541.145Z" fill="#263238"/>
<path d="M71.1704 543.508H116.156C117.12 543.508 118.046 543.127 118.731 542.449C119.416 541.77 119.805 540.848 119.814 539.884L120.95 418.571H68.694L67.6147 539.816C67.6025 540.775 67.9689 541.701 68.6345 542.392C69.3001 543.083 70.2112 543.484 71.1704 543.508Z" fill="#455A64"/>
<g opacity="0.3">
<path d="M77.7933 445.471V538.896C77.7933 538.896 70.432 541.338 70.0685 534.897C69.705 528.456 69.9095 445.471 69.9095 445.471H77.7933Z" fill="white"/>
</g>
<path d="M74.2149 412.368H115.304C116.208 412.368 117.075 412.727 117.714 413.366C118.353 414.005 118.712 414.872 118.712 415.776V417.809H70.841V415.776C70.8409 414.878 71.1953 414.016 71.8271 413.378C72.4589 412.74 73.317 412.377 74.2149 412.368Z" fill="#FAFAFA"/>
<path d="M74.2149 412.368C74.0528 412.346 73.8885 412.346 73.7264 412.368C73.2424 412.409 72.7751 412.565 72.3632 412.822C71.6794 413.239 71.1583 413.876 70.8864 414.629C70.7306 415.109 70.6614 415.613 70.6819 416.117C70.6819 416.651 70.6819 417.253 70.6819 417.798V418.048H70.8296C79.6791 418.139 96.2987 418.196 115.304 418.196H119.007V417.9C119.007 417.037 119.007 416.253 119.007 415.344C118.877 414.452 118.425 413.639 117.737 413.057C117.048 412.476 116.171 412.166 115.27 412.186H112.862H103.717L88.3354 412.243L78.0319 412.334L75.2373 412.391C74.9145 412.385 74.5917 412.404 74.2717 412.448C74.5931 412.472 74.9159 412.472 75.2373 412.448L78.0319 412.504L88.3354 412.595L103.717 412.663H115.213C115.966 412.645 116.7 412.899 117.281 413.379C117.874 413.866 118.26 414.561 118.36 415.322C118.428 416.071 118.36 416.969 118.36 417.798L118.655 417.503H115.247C96.242 417.503 79.6222 417.56 70.7728 417.65L70.9205 417.798C70.9205 417.207 70.9205 416.662 70.9205 416.117C70.8832 415.641 70.9372 415.163 71.0795 414.708C71.3102 413.991 71.7791 413.373 72.4086 412.959C72.9558 412.622 73.5747 412.42 74.2149 412.368Z" fill="#263238"/>
<path d="M66.0925 416.571H123.404C125.06 416.571 126.403 417.914 126.403 419.57V442.483C126.403 444.14 125.06 445.482 123.404 445.482H66.0925C64.4361 445.482 63.0934 444.14 63.0934 442.483V419.57C63.0934 417.914 64.4361 416.571 66.0925 416.571Z" fill="#FAFAFA"/>
<path d="M66.1039 445.471C65.501 445.427 64.9207 445.223 64.4226 444.88C63.846 444.453 63.4428 443.832 63.2866 443.131C63.2144 442.673 63.1954 442.208 63.2298 441.745C63.2298 441.245 63.2298 440.7 63.2298 440.143C63.2298 435.599 63.2866 429.022 63.3206 420.933C63.3206 420.434 63.3206 419.9 63.3206 419.4C63.3509 418.912 63.5117 418.441 63.7864 418.037C64.0685 417.615 64.459 417.278 64.9169 417.06C65.3748 416.842 65.8829 416.752 66.3879 416.798H73.2947H88.5172H123.404C124.104 416.801 124.777 417.074 125.281 417.561C125.785 418.048 126.081 418.711 126.107 419.411C126.107 420.933 126.107 422.444 126.107 423.955V432.861C126.107 435.785 126.107 438.648 126.107 441.45C126.169 442.111 126.104 442.778 125.914 443.415C125.674 443.999 125.247 444.487 124.699 444.801C124.126 445.086 123.484 445.204 122.847 445.142H120.825L92.3341 445.21L73.1243 445.301H67.8987L73.1243 445.357L92.3341 445.448L120.825 445.517H122.847C123.557 445.643 124.288 445.572 124.96 445.312C125.621 444.935 126.137 444.347 126.425 443.642C126.565 443.279 126.642 442.895 126.653 442.506V441.45C126.653 438.648 126.653 435.785 126.653 432.861V419.457C126.62 418.604 126.259 417.796 125.645 417.203C125.031 416.611 124.212 416.278 123.358 416.276H88.4717H73.2493H66.3424C65.7626 416.246 65.1848 416.366 64.6639 416.622C64.143 416.878 63.6963 417.264 63.3661 417.741C63.0585 418.213 62.882 418.758 62.8549 419.32C62.8549 419.866 62.8549 420.365 62.8549 420.877C62.8549 428.965 62.9344 435.52 62.9572 440.086C62.9572 440.643 62.9572 441.222 62.9572 441.688C62.9346 442.163 62.9651 442.64 63.048 443.108C63.2245 443.851 63.6748 444.5 64.309 444.926C64.6917 445.187 65.1323 445.351 65.5926 445.403C65.7576 445.456 65.9308 445.479 66.1039 445.471Z" fill="#263238"/>
<path d="M122.688 444.994C122.847 444.994 122.983 438.848 122.983 431.26C122.983 423.671 122.847 417.514 122.688 417.514C122.529 417.514 122.393 423.66 122.393 431.26C122.393 438.86 122.574 444.994 122.688 444.994Z" fill="#263238"/>
<path d="M117.951 444.994C118.11 444.994 118.246 438.848 118.246 431.26C118.246 423.671 118.11 417.514 117.951 417.514C117.792 417.514 117.656 423.66 117.656 431.26C117.656 438.86 117.781 444.994 117.951 444.994Z" fill="#263238"/>
<path d="M113.157 444.994C113.327 444.994 113.452 438.848 113.452 431.26C113.452 423.671 113.327 417.514 113.157 417.514C112.987 417.514 112.862 423.66 112.862 431.26C112.862 438.86 112.998 444.994 113.157 444.994Z" fill="#263238"/>
<path d="M108.374 444.994C108.533 444.994 108.67 438.848 108.67 431.26C108.67 423.671 108.533 417.514 108.374 417.514C108.215 417.514 108.079 423.66 108.079 431.26C108.079 438.86 108.204 444.994 108.374 444.994Z" fill="#263238"/>
<path d="M103.58 444.994C103.751 444.994 103.876 438.848 103.876 431.26C103.876 423.671 103.751 417.514 103.58 417.514C103.41 417.514 103.285 423.66 103.285 431.26C103.285 438.86 103.376 444.994 103.58 444.994Z" fill="#263238"/>
<path d="M98.832 444.994C98.991 444.994 99.1274 438.848 99.1274 431.26C99.1274 423.671 98.991 417.514 98.832 417.514C98.673 417.514 98.5366 423.66 98.5366 431.26C98.5366 438.86 98.6275 444.994 98.832 444.994Z" fill="#263238"/>
<path d="M94.0041 444.994C94.1745 444.994 94.2994 438.848 94.2994 431.26C94.2994 423.671 94.1745 417.514 94.0041 417.514C93.8337 417.514 93.7087 423.66 93.7087 431.26C93.7087 438.86 93.845 444.994 94.0041 444.994Z" fill="#263238"/>
<path d="M89.2215 444.994C89.3805 444.994 89.5168 438.848 89.5168 431.26C89.5168 423.671 89.3805 417.514 89.2215 417.514C89.0625 417.514 88.9261 423.66 88.9261 431.26C88.9261 438.86 89.0625 444.994 89.2215 444.994Z" fill="#263238"/>
<path d="M84.4275 444.994C84.5979 444.994 84.7343 438.848 84.7343 431.26C84.7343 423.671 84.5979 417.514 84.4275 417.514C84.2571 417.514 84.1322 423.66 84.1322 431.26C84.1322 438.86 84.2685 444.994 84.4275 444.994Z" fill="#263238"/>
<path d="M79.645 444.994C79.804 444.994 79.9404 438.848 79.9404 431.26C79.9404 423.671 79.804 417.514 79.645 417.514C79.486 417.514 79.3497 423.66 79.3497 431.26C79.3497 438.86 79.52 444.994 79.645 444.994Z" fill="#263238"/>
<path d="M74.8624 444.994C75.0214 444.994 75.1578 438.848 75.1578 431.26C75.1578 423.671 75.0214 417.514 74.8624 417.514C74.7034 417.514 74.5671 423.66 74.5671 431.26C74.5671 438.86 74.692 444.994 74.8624 444.994Z" fill="#263238"/>
<path d="M70.0685 444.994C70.2389 444.994 70.3639 438.848 70.3639 431.26C70.3639 423.671 70.2389 417.514 70.0685 417.514C69.8981 417.514 69.7732 423.66 69.7732 431.26C69.7732 438.86 69.9095 444.994 70.0685 444.994Z" fill="#263238"/>
<path d="M65.286 444.994C65.445 444.994 65.5813 438.848 65.5813 431.26C65.5813 423.671 65.445 417.514 65.286 417.514C65.1269 417.514 64.9906 423.66 64.9906 431.26C64.9906 438.86 65.1156 444.994 65.286 444.994Z" fill="#263238"/>
<path d="M71.534 467.248H116.804V503.498H71.534V467.248Z" fill="white"/>
<path d="M109.056 478.79L110.101 477.268H111.237V478.79H112.464V473.326H110.192C109.76 473.315 109.33 473.396 108.931 473.564C108.595 473.708 108.31 473.95 108.113 474.257C107.921 474.574 107.819 474.937 107.819 475.308C107.819 475.679 107.921 476.042 108.113 476.359C108.316 476.66 108.605 476.894 108.942 477.029L107.716 478.79H109.056ZM109.374 474.598C109.626 474.423 109.931 474.339 110.237 474.359H111.271V476.257H110.192C109.884 476.28 109.577 476.191 109.329 476.007C109.227 475.921 109.148 475.812 109.096 475.69C109.045 475.568 109.023 475.435 109.033 475.302C109.027 475.168 109.053 475.034 109.108 474.912C109.163 474.79 109.247 474.682 109.351 474.598H109.374Z" fill="#263238"/>
<path d="M106.261 482.561L107.511 480.766L108.738 482.561H110.112L108.204 479.926L110.022 477.393H108.658L107.522 479.062L106.386 477.393H105.091L106.784 479.88L104.864 482.561H106.261Z" fill="#263238"/>
<path d="M74.8624 473.314H100.706V477.245H74.8624V473.314Z" fill="#E0E0E0"/>
<path d="M77.7933 486.992C77.7933 487.162 85.3363 487.287 94.6515 487.287C103.967 487.287 111.51 487.162 111.51 486.992C111.51 486.822 103.967 486.697 94.6515 486.697C85.3363 486.697 77.7933 486.833 77.7933 486.992Z" fill="#263238"/>
<path d="M77.7933 491.093C77.7933 491.252 85.3363 491.388 94.6515 491.388C103.967 491.388 111.51 491.252 111.51 491.093C111.51 490.934 103.967 490.797 94.6515 490.797C85.3363 490.797 77.7933 490.922 77.7933 491.093Z" fill="#263238"/>
<path d="M96.4805 496.205H113.952V499.567H96.4805V496.205Z" fill="#E0E0E0"/>
<path d="M72.5677 502.385C72.5677 502.385 72.5677 502.146 72.5677 501.726C72.5677 501.305 72.5677 500.658 72.5677 499.885C72.5677 498.238 72.5677 495.887 72.6245 492.91C72.6245 486.901 72.704 478.37 72.7495 468.077L72.5109 468.327H115.895L115.599 468.032V472.576C115.599 474.11 115.599 475.621 115.599 477.12V485.935C115.599 491.684 115.599 497.159 115.599 502.282L115.861 502.01L84.5866 502.146L75.6803 502.214H73.3061H72.6927H72.4768H73.2493H75.5213L84.3707 502.282L115.815 502.419H116.088V502.157C116.088 497.034 116.088 491.559 116.088 485.81V467.862C116.349 468.123 115.724 467.498 115.781 467.566H72.3973H72.1474V468.032C72.1474 478.381 72.2496 486.981 72.2723 493.024C72.2723 495.978 72.3291 498.306 72.3405 499.931C72.3405 500.692 72.3405 501.294 72.3405 501.737C72.398 501.959 72.474 502.176 72.5677 502.385Z" fill="#263238"/>
<path d="M117.951 533.613C118.11 533.613 118.246 514.688 118.246 491.354C118.246 468.021 118.11 449.095 117.951 449.095C117.792 449.095 117.656 468.009 117.656 491.354C117.656 514.699 117.781 533.613 117.951 533.613Z" fill="white"/>
<path d="M71.4885 541.531C71.4885 541.702 81.3717 541.827 93.5497 541.827C105.728 541.827 115.599 541.702 115.599 541.531C115.599 541.361 105.728 541.236 93.5497 541.236C81.3717 541.236 71.4885 541.372 71.4885 541.531Z" fill="#263238"/>
<path d="M434.736 494.989L442.268 521.742C442.268 521.742 418.264 538.578 419.184 543.656L470.304 530.512L460.228 488.344L434.736 494.989Z" fill="#455A64"/>
<path d="M457.535 515.415C458.071 515.45 458.574 515.682 458.949 516.066C459.324 516.449 459.545 516.958 459.569 517.494C459.567 518.03 459.36 518.545 458.99 518.934C458.62 519.322 458.116 519.555 457.581 519.584C457.012 519.553 456.475 519.309 456.077 518.901C455.68 518.492 455.45 517.95 455.434 517.38C455.536 516.301 456.706 515.176 457.706 515.437" fill="#E0E0E0"/>
<g opacity="0.6">
<path d="M470.304 530.512L469.168 526.309L420.57 540.452C420.57 540.452 418.536 542.042 419.195 543.622L470.304 530.512Z" fill="white"/>
</g>
<path d="M441.37 521.685C441.45 521.947 442.722 521.685 444.153 522.242C445.585 522.799 446.505 523.662 446.709 523.503C446.914 523.344 446.175 521.958 444.437 521.379C442.699 520.799 441.268 521.424 441.37 521.685Z" fill="#263238"/>
<path d="M436.565 525.332C436.565 525.604 437.701 525.752 438.837 526.627C439.973 527.502 440.473 528.569 440.723 528.49C440.972 528.41 440.723 526.934 439.371 525.888C438.019 524.843 436.508 525.093 436.565 525.332Z" fill="#263238"/>
<path d="M435.088 532.693C435.327 532.693 435.361 531.33 434.384 530.092C433.407 528.854 432.112 528.592 432.044 528.831C431.975 529.069 432.895 529.637 433.691 530.671C434.486 531.705 434.872 532.784 435.088 532.693Z" fill="#263238"/>
<path d="M440.314 515.403C440.484 515.608 441.54 514.96 442.972 514.699C444.403 514.438 445.619 514.608 445.698 514.347C445.778 514.086 444.494 513.461 442.813 513.79C441.132 514.12 440.143 515.233 440.314 515.403Z" fill="#263238"/>
<path d="M452.662 501.294L453.798 529.104C453.798 529.104 426.534 539.68 426.329 544.848L479.051 544.428L478.938 501.01L452.662 501.294Z" fill="#455A64"/>
<path d="M470.134 526.638C470.647 526.799 471.084 527.141 471.362 527.602C471.641 528.062 471.741 528.608 471.644 529.138C471.525 529.659 471.206 530.114 470.756 530.405C470.307 530.695 469.761 530.799 469.236 530.694C468.691 530.523 468.228 530.158 467.935 529.667C467.642 529.177 467.539 528.597 467.646 528.036C467.827 527.51 468.207 527.077 468.704 526.829C469.201 526.58 469.775 526.536 470.304 526.706" fill="#E0E0E0"/>
<g opacity="0.6">
<path d="M479.108 544.428L478.926 540.054L428.442 542.088C428.442 542.088 426.102 543.156 426.386 544.848L479.108 544.428Z" fill="white"/>
</g>
<path d="M452.991 528.842C452.991 529.104 454.286 529.217 455.57 530.046C456.854 530.876 457.524 531.989 457.763 531.887C458.001 531.784 457.604 530.262 456.036 529.274C454.468 528.286 452.935 528.592 452.991 528.842Z" fill="#263238"/>
<path d="M447.482 531.228C447.482 531.478 448.538 531.921 449.424 533.034C450.31 534.147 450.56 535.306 450.822 535.306C451.083 535.306 451.231 533.795 450.106 532.443C448.981 531.091 447.482 530.978 447.482 531.228Z" fill="#263238"/>
<path d="M444.392 538.032C444.63 538.089 444.971 536.771 444.301 535.329C443.631 533.886 442.427 533.318 442.313 533.545C442.199 533.772 442.961 534.534 443.449 535.715C443.937 536.896 444.176 538.01 444.392 538.032Z" fill="#263238"/>
<path d="M453.412 522.469C453.514 522.708 454.695 522.333 456.149 522.469C457.604 522.605 458.751 523.026 458.876 522.799C459.001 522.571 457.91 521.663 456.195 521.549C454.48 521.435 453.264 522.265 453.412 522.469Z" fill="#263238"/>
<path d="M485.276 297.757V319.75L479.517 405.427C479.517 405.427 483.107 446.993 485.311 470.463C487.219 490.832 484.095 526.32 484.095 526.32H450.538L438.496 407.983L431.044 334.143L418.048 300.586L485.276 297.757Z" fill="#263238"/>
<path d="M396.907 301.585L403.337 421.127L437.28 510.632L438.848 516.017L458.887 511.052L443.983 299.257L396.907 301.585Z" fill="#263238"/>
<path d="M431.157 335.052C431.145 335.218 431.145 335.385 431.157 335.552C431.157 335.915 431.157 336.392 431.157 337.006C431.157 338.324 431.248 340.209 431.328 342.618C431.464 347.48 431.805 354.512 432.282 363.202C433.293 380.583 435.179 404.564 438.132 430.964C441.086 457.365 444.233 481.198 446.573 498.443C447.709 507.031 448.72 513.995 449.39 518.891C449.731 521.276 450.004 523.14 450.185 524.435C450.288 525.048 450.356 525.571 450.413 525.877C450.432 526.043 450.466 526.206 450.515 526.366V525.866C450.515 525.514 450.413 525.037 450.344 524.423C450.185 523.117 449.958 521.254 449.663 518.857C449.049 514.006 448.152 507.031 447.039 498.409C444.767 481.153 441.688 457.32 438.78 430.919C435.872 404.518 433.884 380.583 432.759 363.213C432.225 354.534 431.816 347.503 431.623 342.64C431.498 340.232 431.407 338.358 431.339 337.04C431.339 336.427 431.271 335.904 431.248 335.586C431.238 335.405 431.207 335.226 431.157 335.052Z" fill="#455A64"/>
<path d="M429.033 305.152C429.042 305.492 429.151 305.821 429.346 306.099C429.541 306.377 429.814 306.591 430.13 306.715C430.446 306.839 430.792 306.866 431.124 306.795C431.456 306.723 431.759 306.555 431.996 306.312C432.233 306.069 432.393 305.761 432.456 305.427C432.519 305.094 432.482 304.749 432.35 304.436C432.218 304.123 431.997 303.856 431.714 303.668C431.431 303.48 431.099 303.38 430.76 303.38C430.53 303.382 430.302 303.429 430.09 303.519C429.878 303.609 429.687 303.74 429.526 303.905C429.365 304.07 429.239 304.265 429.154 304.479C429.07 304.693 429.029 304.922 429.033 305.152Z" fill="#455A64"/>
<path d="M399.531 321.851C400.424 321.212 401.22 320.447 401.894 319.579C403.629 317.527 405.053 315.231 406.12 312.763C407.193 310.3 407.905 307.694 408.233 305.027C408.423 303.932 408.45 302.814 408.312 301.71C408.21 301.71 408.142 302.971 407.801 304.971C407.343 307.562 406.58 310.09 405.529 312.502C404.473 314.898 403.134 317.16 401.542 319.239C400.338 320.875 399.463 321.772 399.531 321.851Z" fill="#455A64"/>
<path d="M403.541 189.917C403.541 189.917 397.123 192.438 394.147 201.845C392.079 208.388 382.4 257.1 382.4 257.1L395.896 265.994L401.383 220.384L403.541 189.917Z" fill="#E0E0E0"/>
<path d="M454.866 166.651L459.092 174.149C459.092 174.149 487.344 188.508 487.242 189.917C487.242 189.917 485.663 243.513 485.367 282.83C485.254 297.678 485.799 311.321 486.094 317.876C486.878 335.086 487.492 401.94 487.492 401.94L385.252 399.52L403.541 189.917L417.968 183.612L419.809 179.852L426.432 174.467L454.866 166.651Z" fill="#E0E0E0"/>
<path d="M410.096 400.077C410.081 399.925 410.081 399.773 410.096 399.622C410.096 399.293 410.096 398.85 410.153 398.293C410.221 397.078 410.312 395.351 410.437 393.147C410.698 388.66 411.084 382.207 411.573 374.267C412.538 358.294 413.845 336.279 415.333 311.957C416.821 287.635 418.003 265.62 418.923 249.636C419.343 241.684 419.695 235.243 419.934 230.744C420.059 228.541 420.15 226.825 420.218 225.61C420.218 225.053 420.286 224.61 420.309 224.281C420.317 224.128 420.336 223.976 420.365 223.826C420.378 223.977 420.378 224.129 420.365 224.281C420.365 224.61 420.365 225.053 420.365 225.621C420.365 226.825 420.275 228.552 420.195 230.756C420.036 235.22 419.752 241.684 419.377 249.659C418.627 265.563 417.423 287.658 415.969 312.002C414.515 336.347 413.106 358.351 412.027 374.289C411.482 382.241 411.028 388.671 410.721 393.17C410.55 395.362 410.414 397.089 410.323 398.293L410.21 399.634C410.188 399.785 410.15 399.934 410.096 400.077Z" fill="#263238"/>
<path d="M426.432 174.467L424.057 190.882L419.809 223.826L438.326 192.041L454.4 170.979L427.909 189.542L427.579 174.16" fill="#00AB38"/>
<path d="M459.217 175.148C459.088 175.592 458.916 176.022 458.705 176.432C458.308 177.33 457.785 178.522 457.126 179.988L451.378 192.484L451.31 192.643H451.128H447.266L447.448 192.12L450.288 194.449L450.549 194.665L450.31 194.903L444.926 200.175L427.602 216.976L422.308 222.008L420.843 223.36C420.683 223.528 420.503 223.677 420.309 223.803C420.434 223.604 420.587 223.425 420.763 223.269L422.138 221.838L427.306 216.658L444.494 199.731C446.346 197.914 448.163 196.153 449.89 194.472V194.915L447.061 192.575L446.437 192.052H447.255H451.117L450.867 192.211C453.287 187.167 455.332 182.896 456.82 179.806C457.535 178.363 458.103 177.193 458.535 176.319C458.731 175.911 458.959 175.52 459.217 175.148Z" fill="#263238"/>
<path d="M419.809 223.792C419.632 223.121 419.507 222.437 419.434 221.747C419.229 220.327 418.968 218.442 418.65 216.158C418.014 211.432 417.173 204.9 416.287 197.687L415.469 190.962V190.7L415.731 190.632L420.377 189.496V190.042L415.719 189.212L415.401 189.155L415.537 188.871L418.605 182.203C418.957 181.487 419.241 180.885 419.479 180.397C419.564 180.175 419.683 179.968 419.832 179.783C419.784 180.015 419.708 180.241 419.604 180.454C419.4 180.954 419.15 181.59 418.855 182.317C418.128 184.021 417.151 186.304 415.98 189.065L415.799 188.735L420.468 189.496L421.808 189.712L420.49 190.042L415.856 191.178L416.083 190.859C416.355 192.995 416.628 195.256 416.923 197.573C417.809 204.798 418.582 211.33 419.104 216.067C419.343 218.339 419.548 220.259 419.695 221.747C419.786 222.425 419.824 223.109 419.809 223.792Z" fill="#263238"/>
<path d="M435.611 311.503H436.269L438.235 311.628L445.778 312.173L472.792 314.252H473.065V314.524C472.633 319.602 472.156 325.123 471.656 330.94C471.406 333.863 471.148 336.851 470.883 339.903C470.747 341.436 470.622 342.97 470.486 344.526C470.438 345.332 470.313 346.131 470.111 346.912C469.871 347.719 469.511 348.484 469.043 349.184C467.514 351.248 465.232 352.624 462.693 353.012C460.304 353.308 457.897 353.437 455.491 353.398C450.947 353.411 446.417 352.915 441.984 351.922C440.932 351.667 439.903 351.329 438.905 350.911C438.408 350.709 437.929 350.466 437.474 350.184C437.243 350.029 437.026 349.854 436.826 349.661C436.643 349.46 436.472 349.247 436.315 349.025C435.347 347.243 434.748 345.284 434.554 343.265C434.107 339.721 433.928 336.147 434.02 332.576C434.122 326.032 434.588 320.761 434.94 317.126C435.111 315.308 435.281 313.911 435.406 312.957C435.406 312.502 435.52 312.15 435.554 311.821C435.56 311.696 435.587 311.573 435.633 311.457C435.633 311.457 435.633 311.582 435.633 311.832C435.633 312.082 435.633 312.468 435.542 312.968C435.452 313.968 435.338 315.365 435.19 317.149C434.906 320.784 434.509 326.055 434.463 332.576C434.412 336.122 434.613 339.668 435.065 343.186C435.266 345.125 435.849 347.005 436.781 348.718C437.368 349.517 438.196 350.107 439.144 350.399C440.112 350.801 441.111 351.124 442.131 351.365C446.522 352.333 451.006 352.813 455.502 352.796C457.871 352.832 460.239 352.703 462.591 352.41C464.972 352.048 467.115 350.762 468.555 348.832C468.973 348.198 469.302 347.51 469.532 346.787C469.719 346.042 469.837 345.281 469.884 344.515C470.02 342.959 470.156 341.414 470.281 339.88C470.554 336.836 470.815 333.836 471.077 330.928C471.599 325.101 472.088 319.568 472.542 314.513L472.781 314.808L445.96 312.468L438.371 311.775L436.349 311.582C436.101 311.573 435.855 311.546 435.611 311.503Z" fill="#263238"/>
<g opacity="0.3">
<path d="M470.054 346.185C467.169 353.705 459.637 354.137 451.526 353.001C443.903 351.865 436.565 350.286 435.997 348.105C436.201 352.092 439.132 355.148 442.813 356.75C446.55 358.178 450.562 358.741 454.548 358.397C458.717 358.204 462.318 358.397 465.76 356.023C469.202 353.648 470.065 349.616 470.054 346.185Z" fill="black"/>
</g>
<path d="M392.727 313.831C392.737 313.737 392.737 313.642 392.727 313.547L392.829 312.73C392.905 311.972 393.018 310.916 393.17 309.56C393.442 306.743 393.828 302.744 394.306 297.882C395.237 288.022 396.487 274.39 397.804 259.338C399.122 244.286 400.258 230.642 401.019 220.714C401.394 215.772 401.667 211.773 401.826 209.013C401.917 207.627 401.951 206.559 401.974 205.821C401.974 205.491 401.974 205.218 401.974 204.991C401.99 204.897 401.99 204.801 401.974 204.707C401.701 207.911 399.804 229.62 397.214 259.235C395.919 274.276 394.737 287.885 393.885 297.802C393.488 302.699 393.158 306.675 392.931 309.492C392.829 310.832 392.749 311.9 392.692 312.673C392.692 313.002 392.692 313.275 392.692 313.502C392.688 313.613 392.699 313.724 392.727 313.831Z" fill="#263238"/>
<path d="M377.913 258.179C377.477 259.752 377.316 261.389 377.436 263.018C377.675 265.506 377.788 271.618 384.411 273.708C391.034 275.798 394.249 273.799 396.282 270.993L397.293 258.838L390.205 254.157L377.913 258.179Z" fill="#E0E0E0"/>
<g opacity="0.3">
<path d="M433.248 265.994C433.248 265.994 450.185 282.728 463.34 285.136C476.495 287.544 481.198 282.864 484.697 271.084L433.248 265.994Z" fill="black"/>
</g>
<path d="M486.935 189.508C486.935 189.508 497.693 199.482 494.626 223.099C491.786 245.047 486.674 275.605 479.994 279.161C473.314 282.716 458.717 280.933 448.073 274.901C437.428 268.869 406.586 252.556 406.586 252.556L419.354 229.836L460.489 245.74C460.489 245.74 465.805 209.388 468.998 203.071" fill="#E0E0E0"/>
<path d="M469.168 202.651C469.168 202.651 469.054 202.89 468.85 203.355C468.759 203.583 468.623 203.867 468.486 204.219C468.35 204.571 468.236 205.003 468.077 205.468C467.475 207.354 466.76 210.183 465.976 213.863C464.385 221.213 462.466 231.937 460.444 245.297L460.739 245.115L419.627 229.097L419.4 229.006L419.275 229.222C415.242 236.402 410.948 243.99 406.495 251.942L406.347 252.215L406.62 252.362L432.998 266.574L445.937 273.537C448.061 274.673 450.174 275.866 452.367 276.809C454.554 277.734 456.801 278.512 459.092 279.138C463.554 280.388 468.185 280.925 472.815 280.728C475.071 280.628 477.295 280.148 479.392 279.308L480.164 278.968C480.414 278.843 480.653 278.661 480.903 278.502C481.325 278.144 481.706 277.74 482.039 277.298C482.715 276.426 483.298 275.485 483.777 274.492C485.549 270.671 486.935 266.683 487.912 262.586C488.946 258.645 489.764 254.771 490.502 251.011C491.956 243.502 493.035 236.458 493.91 230.017C494.785 223.576 495.614 217.714 495.376 212.523C495.263 208.086 494.474 203.692 493.035 199.493C492.103 196.848 490.79 194.353 489.139 192.086C488.705 191.5 488.235 190.943 487.73 190.416C487.558 190.24 487.376 190.073 487.185 189.917L487.685 190.462C488.166 191.001 488.618 191.566 489.037 192.154C490.636 194.438 491.906 196.935 492.808 199.573C494.218 203.753 494.984 208.124 495.08 212.534C495.285 217.692 494.467 223.519 493.535 229.949C492.604 236.379 491.502 243.422 490.025 250.92C489.287 254.657 488.457 258.52 487.412 262.45C486.439 266.507 485.066 270.457 483.311 274.242C482.852 275.191 482.301 276.093 481.664 276.934C481.328 277.353 480.947 277.734 480.528 278.07C480.318 278.218 480.098 278.351 479.869 278.468L479.142 278.797C477.096 279.597 474.93 280.047 472.735 280.126C468.17 280.313 463.604 279.78 459.205 278.547C456.947 277.933 454.732 277.174 452.571 276.275C450.39 275.332 448.322 274.162 446.187 273.026L433.248 266.051L406.858 251.851L406.983 252.26L419.729 229.54L419.377 229.665L460.534 245.569L460.796 245.671V245.399C462.761 232.051 464.613 221.316 466.124 213.954C466.862 210.274 467.544 207.434 468.112 205.548C468.248 205.082 468.373 204.662 468.486 204.298L468.816 203.424C469.043 202.901 469.168 202.651 469.168 202.651Z" fill="#263238"/>
<path d="M454.4 229.87H433.986V223.076H454.4V229.87Z" fill="white"/>
<path d="M450.174 226.064C448.068 225.758 445.938 225.655 443.812 225.757C441.683 225.655 439.549 225.758 437.44 226.064C439.55 226.356 441.684 226.455 443.812 226.359C445.938 226.455 448.067 226.356 450.174 226.064Z" fill="#263238"/>
<g opacity="0.3">
<path d="M420.843 223.383L450.89 199.004L450.174 196.88H452.787L457.126 179.988L450.878 192.257L447.266 192.086L449.89 194.495L420.843 223.383Z" fill="black"/>
</g>
<path d="M457.956 195.596L456.82 195.142C456.82 195.085 459.285 189.212 461.704 182.987C462.574 181.074 462.926 178.967 462.727 176.875C462.591 176.217 462.227 175.628 461.699 175.213C461.171 174.797 460.513 174.581 459.841 174.603L459.046 174.183L458.637 173.456C460.739 173.001 463.556 174.762 463.897 176.705C464.119 179.015 463.727 181.342 462.761 183.453C460.432 189.712 457.99 195.54 457.956 195.596Z" fill="#455A64"/>
<path d="M459.728 209.319L458.217 208.729C459.455 205.536 461.148 199.891 460.421 198.3C460.062 197.732 459.587 197.247 459.027 196.877C458.467 196.507 457.835 196.26 457.172 196.153C456.36 195.939 455.51 195.916 454.689 196.085C453.867 196.255 453.095 196.612 452.435 197.13C450.708 198.595 448.095 203.753 447.232 205.627L445.766 204.946C445.891 204.662 449.027 197.88 451.39 195.858C452.24 195.177 453.237 194.704 454.301 194.475C455.366 194.247 456.469 194.269 457.524 194.54C458.439 194.699 459.307 195.062 460.063 195.603C460.818 196.144 461.441 196.848 461.886 197.664C463.113 200.3 460.307 207.888 459.728 209.319Z" fill="#455A64"/>
<path d="M443.415 233.948C441.552 233.948 439.712 232.948 437.951 230.972L438.564 230.426C440.495 232.619 442.495 233.482 444.471 233.016C452.548 231.119 458.705 208.683 458.762 208.456L459.546 208.661C459.285 209.603 453.207 231.801 444.664 233.8C444.255 233.9 443.836 233.949 443.415 233.948Z" fill="#263238"/>
<path d="M439.507 231.892C439.343 232.056 439.125 232.156 438.894 232.172C438.662 232.189 438.432 232.122 438.246 231.983L436.497 230.676C436.366 230.595 436.253 230.487 436.166 230.361C436.078 230.234 436.017 230.091 435.986 229.94C435.955 229.789 435.955 229.634 435.986 229.483C436.018 229.332 436.079 229.189 436.167 229.063C436.26 228.917 436.385 228.795 436.532 228.705C436.679 228.614 436.845 228.559 437.017 228.543C437.189 228.526 437.363 228.549 437.525 228.61C437.686 228.67 437.832 228.767 437.951 228.893L439.53 230.529C439.707 230.713 439.804 230.959 439.8 231.215C439.796 231.47 439.69 231.714 439.507 231.892Z" fill="#263238"/>
<path d="M446.846 234.686C445.795 234.767 444.74 234.584 443.778 234.153C442.816 233.723 441.976 233.059 441.336 232.221C436.372 225.258 445.732 205.923 446.13 205.105L446.857 205.457C446.766 205.662 437.303 225.178 441.995 231.756C443.222 233.471 445.403 234.152 448.379 233.778L448.481 234.573C447.939 234.648 447.393 234.686 446.846 234.686Z" fill="#263238"/>
<path d="M446.698 234.243C446.714 234.474 446.812 234.692 446.974 234.857C447.137 235.021 447.353 235.122 447.584 235.141L449.765 235.322C449.916 235.346 450.071 235.34 450.219 235.303C450.367 235.266 450.507 235.199 450.629 235.107C450.751 235.014 450.853 234.898 450.929 234.766C451.005 234.633 451.054 234.486 451.072 234.334C451.1 234.164 451.089 233.989 451.039 233.823C450.99 233.657 450.903 233.505 450.786 233.378C450.669 233.251 450.524 233.152 450.363 233.09C450.202 233.027 450.028 233.002 449.856 233.016L447.584 233.21C447.331 233.233 447.097 233.354 446.931 233.547C446.766 233.74 446.682 233.99 446.698 234.243Z" fill="#263238"/>
<path d="M407.824 210.524C404.637 210.524 402.053 207.94 402.053 204.753C402.053 201.566 404.637 198.982 407.824 198.982C411.011 198.982 413.595 201.566 413.595 204.753C413.595 207.94 411.011 210.524 407.824 210.524Z" fill="#263238"/>
<path d="M407.824 210.524C404.637 210.524 402.053 207.94 402.053 204.753C402.053 201.566 404.637 198.982 407.824 198.982C411.011 198.982 413.595 201.566 413.595 204.753C413.595 207.94 411.011 210.524 407.824 210.524Z" fill="#263238"/>
<path d="M412.084 204.753C412.086 205.598 411.837 206.426 411.369 207.13C410.9 207.834 410.233 208.383 409.453 208.708C408.672 209.033 407.812 209.118 406.982 208.954C406.153 208.789 405.39 208.382 404.792 207.784C404.194 207.186 403.787 206.424 403.623 205.595C403.458 204.765 403.544 203.905 403.869 203.124C404.193 202.343 404.743 201.676 405.447 201.208C406.151 200.739 406.978 200.49 407.824 200.493C408.954 200.493 410.037 200.942 410.836 201.74C411.635 202.539 412.084 203.623 412.084 204.753Z" fill="#E0E0E0"/>
<path d="M420.07 179.613C419.525 180.397 413.493 193.131 410.198 199.55L409.233 199.05C409.721 198.107 418.491 180.011 419.173 179L425.557 173.808L425.784 175.024L420.07 179.613Z" fill="#455A64"/>
<path d="M422.49 204.616C418.309 208.786 407.722 219.634 407.722 219.634L404.893 217.93L419.797 202.026C420.1 201.704 420.507 201.5 420.946 201.45C421.385 201.4 421.827 201.508 422.194 201.754C422.424 201.906 422.617 202.107 422.759 202.342C422.901 202.578 422.99 202.842 423.018 203.115C423.046 203.389 423.014 203.666 422.922 203.925C422.831 204.185 422.683 204.421 422.49 204.616Z" fill="#263238"/>
<path d="M419.479 229.37L415.924 219.35C415.555 218.269 414.869 217.325 413.955 216.64C413.041 215.955 411.941 215.561 410.8 215.511H410.266C408.131 215.749 397.259 216.465 397.259 216.465L393.056 221.179C392.71 221.572 392.519 222.076 392.519 222.599C392.519 223.122 392.71 223.627 393.056 224.019L391.84 232.539L394.192 234.175L393.953 240.128C393.953 240.128 396.078 241.537 397.021 241.071L397.975 240.594L399.384 239.174L403.405 244.854L408.96 248.068L419.479 229.37Z" fill="#FFBF9D"/>
<path d="M392.988 224.496C393.463 223.918 393.971 223.368 394.51 222.849C395.115 222.33 395.802 221.915 396.544 221.622C397.509 221.394 398.494 221.261 399.486 221.225C402.096 221.081 404.69 220.731 407.245 220.18C404.632 220.117 402.019 220.262 399.429 220.611C398.387 220.645 397.354 220.806 396.35 221.088C395.554 221.426 394.829 221.911 394.215 222.52C393.599 223.025 393.168 223.72 392.988 224.496Z" fill="#FF9A6C"/>
<path d="M393.226 232.323C393.47 231.582 393.762 230.857 394.101 230.154C395.071 228.545 396.55 227.305 398.304 226.632C400.089 225.99 401.974 225.67 403.871 225.689C404.666 225.743 405.465 225.721 406.256 225.621C405.488 225.365 404.681 225.242 403.871 225.257C401.905 225.105 399.929 225.376 398.077 226.053C396.192 226.769 394.639 228.157 393.715 229.949C393.289 230.663 393.117 231.499 393.226 232.323Z" fill="#FF9A6C"/>
<path d="M394.294 239.628C394.687 238.912 394.883 238.104 394.862 237.288C394.908 236.45 395.089 235.626 395.396 234.845C395.606 234.398 395.923 234.009 396.32 233.714C396.716 233.418 397.179 233.226 397.668 233.153C399.541 232.752 401.438 232.478 403.348 232.335C404.159 232.302 404.957 232.117 405.7 231.789C404.899 231.77 404.098 231.808 403.303 231.903C401.358 231.919 399.42 232.136 397.52 232.551C396.948 232.693 396.408 232.944 395.93 233.289C395.486 233.636 395.141 234.095 394.93 234.618C394.62 235.461 394.47 236.355 394.487 237.254C394.431 238.73 394.192 239.594 394.294 239.628Z" fill="#FF9A6C"/>
<path d="M388.364 220.838L435.258 269.266L433.452 271.095L399.861 267.312L354.659 224.246L354.705 222.179L388.364 220.838Z" fill="#455A64"/>
<g opacity="0.3">
<path d="M379.583 243.422C380.688 242.414 381.992 241.649 383.41 241.176C384.829 240.702 386.33 240.531 387.819 240.673C390.801 240.978 393.625 242.165 395.93 244.081C397.882 245.511 399.305 247.549 399.974 249.875C400.928 253.941 397.577 259.633 393.885 261.609C389.205 257.849 384.65 252.078 379.969 248.33C379.21 247.838 378.638 247.106 378.345 246.251C378.305 245.714 378.398 245.176 378.613 244.683C378.829 244.19 379.162 243.757 379.583 243.422Z" fill="black"/>
</g>
<path d="M354.841 224.156C355.045 224.17 355.25 224.17 355.454 224.156H357.249L363.974 224.076L387.376 223.667L387.16 223.576L398.906 235.766L423.274 260.837L430.703 268.38L432.748 270.414C432.979 270.657 433.225 270.885 433.486 271.095C433.286 270.833 433.062 270.589 432.816 270.368L430.851 268.255L423.558 260.576C417.321 254.089 408.79 245.194 399.327 235.379C395.18 231.085 391.193 226.973 387.558 223.224L387.467 223.133H387.376L364.008 223.804L357.295 224.042L355.5 224.133C355.28 224.116 355.059 224.124 354.841 224.156Z" fill="#263238"/>
<path d="M384.195 238.356C384.195 238.356 379.651 238.447 378.163 239.185C376.675 239.923 372.608 244.24 372.608 244.24C372.608 244.24 372.608 247.194 373.744 247.307C373.599 247.968 373.519 248.642 373.505 249.318C373.392 250.977 373.153 251.92 375.403 253.34C375.403 253.34 375.164 256.055 375.993 256.748C376.554 257.219 377.146 257.652 377.765 258.043C377.765 258.043 377.89 261.03 381.9 260.996L385.661 262.655C385.661 262.655 394.022 261.871 393.136 260.883C392.249 259.894 390.239 254.998 390.239 254.998C390.239 254.998 395.919 250.829 395.851 249.534C395.782 248.239 395.26 248.114 395.26 248.114C395.26 248.114 395.487 245.637 393.488 245.399C393.488 245.399 391.943 242.32 390.409 242.207C388.876 242.093 378.47 245.865 378.47 245.865L382.366 242.559C382.366 242.559 386.274 241.968 386.149 240.662C386.024 239.355 384.195 238.356 384.195 238.356Z" fill="#FFBF9D"/>
<path d="M384.877 253.93C386.68 253.17 388.444 252.317 390.159 251.374C391.963 250.602 393.726 249.737 395.442 248.784C393.496 249.146 391.62 249.818 389.887 250.772C388.062 251.556 386.371 252.622 384.877 253.93Z" fill="#FF9A6C"/>
<path d="M379.424 250.318C381.755 249.778 384.035 249.041 386.24 248.114C388.505 247.379 390.702 246.447 392.806 245.331C390.476 245.87 388.195 246.607 385.99 247.534C383.725 248.27 381.528 249.201 379.424 250.318Z" fill="#FF9A6C"/>
<path d="M453.469 145.635C454.98 140.483 456.052 135.212 456.672 129.879C457.291 124.52 456.573 119.091 454.582 114.077C454.252 113.327 451.571 108.397 450.776 108.465C450.197 108.545 451.912 113.236 451.662 113.759C449.118 118.689 448.663 124.494 449.39 130.004C450.149 135.348 451.501 140.591 453.423 145.635" fill="#263238"/>
<path d="M452.935 125.153C452.685 111.68 444.63 100.616 431.18 101.297L429.942 101.434C423.918 102.055 418.35 104.925 414.349 109.472C410.348 114.018 408.209 119.906 408.358 125.96C408.642 137.627 409.108 150.509 409.835 156.711C411.346 169.537 424.41 170.184 424.41 170.184L427.386 189.973L454.866 170.866L452.935 125.153Z" fill="#FFBF9D"/>
<path d="M424.455 170.23C430.389 169.585 436.014 167.255 440.666 163.516C440.666 163.516 438.098 174.501 425.159 174.694L424.455 170.23Z" fill="#FF9A6C"/>
<path d="M413.3 136.65C413.346 137.128 413.577 137.569 413.944 137.879C414.312 138.189 414.786 138.343 415.265 138.308C415.5 138.302 415.732 138.25 415.946 138.153C416.161 138.056 416.354 137.917 416.513 137.744C416.673 137.572 416.797 137.369 416.877 137.148C416.957 136.926 416.992 136.691 416.98 136.456C416.934 135.977 416.703 135.535 416.336 135.223C415.969 134.911 415.495 134.755 415.015 134.787C414.779 134.794 414.547 134.848 414.333 134.946C414.118 135.044 413.925 135.184 413.766 135.357C413.606 135.531 413.482 135.735 413.402 135.957C413.322 136.178 413.287 136.414 413.3 136.65Z" fill="#263238"/>
<path d="M411.709 130.947C411.959 131.151 413.243 129.981 415.219 129.811C417.196 129.64 418.741 130.447 418.934 130.186C419.127 129.924 418.752 129.652 418.071 129.266C417.154 128.759 416.101 128.552 415.06 128.675C414.035 128.779 413.069 129.204 412.3 129.89C411.743 130.39 411.584 130.845 411.709 130.947Z" fill="#263238"/>
<path d="M430.192 135.854C430.238 136.334 430.469 136.776 430.836 137.088C431.203 137.399 431.677 137.556 432.157 137.524C432.393 137.517 432.625 137.463 432.839 137.365C433.054 137.267 433.247 137.127 433.406 136.953C433.566 136.78 433.69 136.576 433.77 136.354C433.85 136.132 433.885 135.897 433.873 135.661C433.813 135.192 433.576 134.764 433.21 134.464C432.845 134.164 432.379 134.015 431.907 134.048C431.676 134.054 431.448 134.105 431.237 134.199C431.025 134.293 430.835 134.428 430.675 134.596C430.516 134.764 430.391 134.961 430.308 135.177C430.225 135.393 430.186 135.623 430.192 135.854Z" fill="#263238"/>
<path d="M431.135 129.697C431.385 129.913 432.668 128.743 434.645 128.561C436.622 128.379 438.167 129.197 438.36 128.925C438.553 128.652 438.178 128.402 437.496 128.016C436.579 127.509 435.526 127.302 434.486 127.425C433.461 127.529 432.494 127.954 431.725 128.641C431.169 129.152 431.01 129.606 431.135 129.697Z" fill="#263238"/>
<path d="M425.648 145.624C424.572 145.402 423.472 145.321 422.376 145.385C421.876 145.385 421.388 145.385 421.24 144.999C421.143 144.481 421.207 143.946 421.422 143.465L422.501 139.467C424.001 133.787 425.023 129.129 424.773 129.072C424.523 129.015 423.149 133.616 421.649 139.296C421.297 140.694 420.956 142.034 420.627 143.306C420.392 143.956 420.392 144.667 420.627 145.317C420.717 145.486 420.845 145.632 421.001 145.745C421.156 145.857 421.335 145.932 421.524 145.965C421.815 146.002 422.109 146.002 422.399 145.965C423.492 145.985 424.583 145.87 425.648 145.624Z" fill="#263238"/>
<path d="M431.6 146.374C431.282 146.374 431.498 148.532 429.828 150.248C428.158 151.963 425.852 151.963 425.864 152.27C425.875 152.576 426.42 152.633 427.386 152.554C428.642 152.44 429.818 151.885 430.703 150.986C431.558 150.128 432.043 148.97 432.055 147.76C432.044 146.851 431.748 146.351 431.6 146.374Z" fill="#263238"/>
<path d="M430.396 121.677C430.646 122.188 432.589 121.677 434.94 121.768C437.292 121.859 439.223 122.234 439.484 121.768C439.598 121.518 439.212 121.052 438.348 120.632C437.292 120.096 436.125 119.815 434.94 119.814C433.759 119.808 432.592 120.076 431.532 120.598C430.669 120.961 430.283 121.427 430.396 121.677Z" fill="#263238"/>
<path d="M411.834 124.29C412.232 124.699 413.538 124.097 415.174 123.904C416.81 123.711 418.218 123.904 418.491 123.381C418.605 123.143 418.343 122.711 417.696 122.347C416.832 121.915 415.856 121.76 414.901 121.904C413.943 122 413.04 122.398 412.323 123.04C411.8 123.608 411.652 124.085 411.834 124.29Z" fill="#263238"/>
<path d="M452.889 134.775C453.105 134.65 461.443 131.231 462.091 140.046C462.738 148.861 453.752 147.691 453.718 147.441C453.684 147.192 452.889 134.775 452.889 134.775Z" fill="#FFBF9D"/>
<path d="M456.172 143.897C456.172 143.897 456.331 144 456.604 144.102C456.978 144.221 457.383 144.197 457.74 144.034C458.637 143.625 459.319 142.091 459.251 140.501C459.213 139.743 459.011 139.003 458.66 138.331C458.563 138.053 458.397 137.803 458.179 137.604C457.961 137.406 457.697 137.265 457.41 137.195C457.23 137.159 457.043 137.189 456.883 137.278C456.723 137.368 456.6 137.511 456.536 137.683C456.433 137.933 456.536 138.104 456.456 138.126C456.377 138.149 456.263 137.99 456.308 137.627C456.341 137.404 456.449 137.199 456.615 137.047C456.728 136.947 456.859 136.871 457.001 136.822C457.144 136.773 457.294 136.753 457.444 136.763C457.813 136.805 458.164 136.942 458.463 137.161C458.762 137.38 458.998 137.674 459.148 138.013C459.577 138.747 459.822 139.573 459.864 140.421C459.932 142.205 459.148 143.931 457.899 144.397C457.667 144.483 457.419 144.516 457.173 144.492C456.927 144.468 456.69 144.389 456.479 144.261C456.195 144.113 456.138 143.92 456.172 143.897Z" fill="#FF9A6C"/>
<path d="M413.163 110.919C411.686 110.226 415.674 105.33 419.082 103.512C424.228 100.763 432.225 98.7639 437.258 99.8317C443.256 101.127 448.334 103.74 451.628 108.92C454.824 114.191 456.561 120.217 456.661 126.38C456.855 128.253 456.545 130.143 455.763 131.856C454.627 133.878 452.355 135.264 452.651 137.945C452.715 138.429 452.683 138.921 452.556 139.393C452.429 139.865 452.21 140.307 451.912 140.694C450.401 142.523 448.334 141.034 447.311 139.478C445.153 136.138 444.676 132.037 444.244 128.118C443.784 125.331 443.784 122.487 444.244 119.7C444.585 118.201 445.187 116.77 445.38 115.247C445.554 114.498 445.563 113.719 445.406 112.966C445.249 112.213 444.93 111.503 444.471 110.885C444.239 110.639 443.984 110.414 443.71 110.215C442.41 109.223 440.869 108.595 439.246 108.395C437.623 108.195 435.976 108.431 434.475 109.079C429.624 111.158 421.308 114.327 418.98 112.782C415.64 110.567 414.776 109.033 414.776 109.033L413.163 110.919Z" fill="#263238"/>
</svg>
